<svg xmlns="http://www.w3.org/2000/svg" width="28" height="28" viewBox="0 0 28 28">
  <g id="Group_69715" data-name="Group 69715" transform="translate(-174 -914)">
    <rect id="Rectangle_149168" data-name="Rectangle 149168" width="28" height="28" transform="translate(174 914)" fill="none"/>
    <g id="noun-add-929467" transform="translate(100.297 870.119)">
      <path id="Path_42218" data-name="Path 42218" d="M134.393,50.808a10,10,0,1,0,0,14.145A10.006,10.006,0,0,0,134.393,50.808Zm-2.53,7.639a.841.841,0,0,1-.578.241h-3.133v3.133a.823.823,0,0,1-.819.819.812.812,0,0,1-.819-.819V58.688h-3.133a.819.819,0,0,1,0-1.638h3.133V53.917a.819.819,0,1,1,1.638,0V57.05h3.133a.812.812,0,0,1,.819.819.966.966,0,0,1-.241.578Z" transform="translate(-39.618)" fill="#c32939"/>
    </g>
  </g>
</svg>
