<svg xmlns="http://www.w3.org/2000/svg" width="24" height="24" viewBox="0 0 24 24">
  <g id="Group_69778" data-name="Group 69778" transform="translate(-156 -728)">
    <rect id="Rectangle_149186" data-name="Rectangle 149186" width="24" height="24" transform="translate(156 728)" fill="none"/>
    <g id="noun-feed-5651377" transform="translate(50.997 667.405)">
      <path id="Path_42436" data-name="Path 42436" d="M108.864,273.99h.179a2.361,2.361,0,0,1-.153-.852V262.5h-.025A3.863,3.863,0,0,0,105,266.361v3.768a3.863,3.863,0,0,0,3.861,3.861Z" transform="translate(0 -191.12)" fill="#9b1826"/>
      <path id="Path_42437" data-name="Path 42437" d="M234.214,61.6H223.671a3.871,3.871,0,0,0-3.87,3.861V82.018a.855.855,0,0,0,.852.852h13.561a3.863,3.863,0,0,0,3.861-3.861V65.456a3.863,3.863,0,0,0-3.861-3.861Zm-9.793,6.018h4.518a.852.852,0,1,1,0,1.7h-4.518a.852.852,0,1,1,0-1.7Zm9.035,9.24h-9.035a.852.852,0,1,1,0-1.7h9.035a.852.852,0,0,1,0,1.7Zm0-3.768h-9.035a.852.852,0,1,1,0-1.7h9.035a.852.852,0,0,1,0,1.7Z" transform="translate(-109.207 0)" fill="#c32939"/>
    </g>
  </g>
</svg>
