<svg xmlns="http://www.w3.org/2000/svg" xmlns:xlink="http://www.w3.org/1999/xlink" width="28" height="28" viewBox="0 0 28 28">
  <defs>
    <clipPath id="clip-path">
      <rect id="Rectangle_148936" data-name="Rectangle 148936" width="27.397" height="15.391" fill="#fff"/>
    </clipPath>
  </defs>
  <g id="Group_69724" data-name="Group 69724" transform="translate(-295 -773)">
    <rect id="Rectangle_149177" data-name="Rectangle 149177" width="28" height="28" transform="translate(295 773)" fill="none"/>
    <g id="Group_69383" data-name="Group 69383" transform="translate(295.395 779.66)">
      <g id="Group_69382" data-name="Group 69382" transform="translate(0 0)" clip-path="url(#clip-path)">
        <path id="Path_42741" data-name="Path 42741" d="M24.986,2.577c-.621,0-.552,1.84-1.864,2.324a5.059,5.059,0,0,1-1.749.322,2.987,2.987,0,0,1-1.955-.552c-.414-.415,3.428-1.7,2.6-2.807L20.752.161A.388.388,0,0,0,20.406,0a.529.529,0,0,0-.253.069l-4.21,3.106s-1.611,0-1.887.943H13.92c-.346,0-1.29.069-1.541.851A29.06,29.06,0,0,0,6.005,7.04c-2.37,1.288-6,1.2-6,3.221,0,2.047,3.22,3.382,5.774,3.382.6,0,1.794-.023,3.29-.046v.92H4.717a.848.848,0,0,1-.851-.851H2.99a1.739,1.739,0,0,0,1.726,1.725h20.8v-.874h-5.2V13.275c1.265-.047,2.208-.093,2.6-.116s.737-.023,1.082-.023h1.289c1.357,0,2.047-.161,2.07-1.725.046-2.3.323-5.843-1.427-8.075-.437-.552-.735-.759-.942-.759m-15.07,11c2.967-.069,6.787-.184,9.549-.277v1.22H9.916Zm5.706-.184-2.21-.046a.171.171,0,0,1-.114-.023L7.615,8.167a.157.157,0,0,1,.069-.276l1.587-.438A.17.17,0,0,1,9.41,7.5l6.327,5.614a.157.157,0,0,1-.115.277m3.818-1.128-2.208-.023a.172.172,0,0,1-.115-.046L11.434,7.04a.168.168,0,0,1,.069-.277l1.587-.437a.171.171,0,0,1,.139.046l6.326,5.614a.157.157,0,0,1-.115.276m3.842-.9-2.232-.046a.207.207,0,0,1-.115-.023L15.252,6.142a.165.165,0,0,1,.069-.276l1.588-.438c.046,0,.114,0,.138.047l6.327,5.613a.156.156,0,0,1-.092.277" transform="translate(0 0)" fill="#fff" fill-rule="evenodd"/>
      </g>
    </g>
  </g>
</svg>
