<svg xmlns="http://www.w3.org/2000/svg" width="48" height="48" viewBox="0 0 48 48">
  <g id="Group_70040" data-name="Group 70040" transform="translate(-32 -344)">
    <g id="icon" transform="translate(32 344)">
      <rect id="_avatar_en" data-name="#avatar_en" width="48" height="48" rx="12" fill="#c32939"/>
    </g>
    <g id="Group_70039" data-name="Group 70039">
      <rect id="Rectangle_149356" data-name="Rectangle 149356" width="24" height="24" transform="translate(44 356)" fill="none"/>
      <g id="noun-microscope-1983585" transform="translate(-133.407 322.125)">
        <path id="Path_43167" data-name="Path 43167" d="M222.143,226.654a1.09,1.09,0,0,0,1.54,0l.8-.8-4.3-4.3-.8.8a1.087,1.087,0,0,0,0,1.538Z" transform="translate(-35.834 -178.586)" fill="#fff"/>
        <path id="Path_43168" data-name="Path 43168" d="M447.22,35.94l-1.913-1.913a.522.522,0,1,0-.739.738l.386.386-1.208,1.209,1.141,1.141,1.208-1.209.386.386a.522.522,0,1,0,.739-.738Z" transform="translate(-249.629)" fill="#fff"/>
        <path id="Path_43169" data-name="Path 43169" d="M236.266,97.847a7.376,7.376,0,0,0-2.261-5.323,2.281,2.281,0,0,0,.054-.485,2.241,2.241,0,0,0-1.175-1.971l.914-.916a1.422,1.422,0,0,0,0-2.012l-1.208-1.209a1.424,1.424,0,0,0-2.014,0l-6.24,6.241,3.22,3.219,2.286-2.286a2.242,2.242,0,0,0,1.972,1.175,2.407,2.407,0,0,0,.369-.032,4.9,4.9,0,1,1-6.695,7.149h-3.122a7.451,7.451,0,0,0,2.706,2.806H223.84a.738.738,0,0,0-.689.556l-.33,1.544a.441.441,0,0,0,.449.556h11.436a.441.441,0,0,0,.449-.556l-.33-1.544a.738.738,0,0,0-.689-.556h-1.482a7.393,7.393,0,0,0,3.613-6.357ZM231.818,93.2a1.165,1.165,0,1,1,1.165-1.165A1.164,1.164,0,0,1,231.818,93.2Z" transform="translate(-38.978 -49.137)" fill="#fff"/>
        <path id="Path_43170" data-name="Path 43170" d="M188.082,380.748a.5.5,0,0,0-.5-.5h-5.678a.5.5,0,1,0,0,1h5.677a.5.5,0,0,0,.5-.5Z" transform="translate(0 -329.592)" fill="#fff"/>
      </g>
    </g>
  </g>
</svg>
