<svg xmlns="http://www.w3.org/2000/svg" xmlns:xlink="http://www.w3.org/1999/xlink" width="112.516" height="69.636" viewBox="0 0 112.516 69.636">
  <defs>
    <linearGradient id="linear-gradient" y1="0.023" x2="1" y2="1" gradientUnits="objectBoundingBox">
      <stop offset="0" stop-color="#c32939"/>
      <stop offset="0.502" stop-color="#c32939"/>
      <stop offset="1" stop-color="#0c034d"/>
    </linearGradient>
    <filter id="Path_42723" x="4.794" y="3.133" width="40.04" height="55.712" filterUnits="userSpaceOnUse">
      <feOffset input="SourceAlpha"/>
      <feGaussianBlur stdDeviation="6" result="blur"/>
      <feFlood flood-opacity="0.2"/>
      <feComposite operator="in" in2="blur"/>
      <feComposite in="SourceGraphic"/>
    </filter>
    <filter id="Path_42724" x="9.587" y="0" width="40.04" height="58.844" filterUnits="userSpaceOnUse">
      <feOffset input="SourceAlpha"/>
      <feGaussianBlur stdDeviation="6" result="blur-2"/>
      <feFlood flood-opacity="0.2"/>
      <feComposite operator="in" in2="blur-2"/>
      <feComposite in="SourceGraphic"/>
    </filter>
    <filter id="Path_42725" x="14.381" y="3.133" width="40.04" height="55.712" filterUnits="userSpaceOnUse">
      <feOffset input="SourceAlpha"/>
      <feGaussianBlur stdDeviation="6" result="blur-3"/>
      <feFlood flood-opacity="0.2"/>
      <feComposite operator="in" in2="blur-3"/>
      <feComposite in="SourceGraphic"/>
    </filter>
    <filter id="Path_42726" x="0" y="5.818" width="59.215" height="63.819" filterUnits="userSpaceOnUse">
      <feOffset input="SourceAlpha"/>
      <feGaussianBlur stdDeviation="6" result="blur-4"/>
      <feFlood flood-opacity="0.2"/>
      <feComposite operator="in" in2="blur-4"/>
      <feComposite in="SourceGraphic"/>
    </filter>
    <filter id="Union_2" x="0" y="0" width="59.214" height="69.636" filterUnits="userSpaceOnUse">
      <feOffset input="SourceAlpha"/>
      <feGaussianBlur stdDeviation="6" result="blur-5"/>
      <feFlood flood-opacity="0.2"/>
      <feComposite operator="in" in2="blur-5"/>
      <feComposite in="SourceGraphic"/>
    </filter>
  </defs>
  <g id="Group_69364" data-name="Group 69364" transform="translate(-57.052 -274.02)">
    <g id="Group_68447" data-name="Group 68447" transform="translate(106.568 293.52)">
      <g id="Group_1" data-name="Group 1" transform="translate(0 0)">
        <text id="Unite" transform="translate(0 24)" fill="#fff" font-size="23" font-family="Poppins-Bold, Poppins" font-weight="700"><tspan x="0" y="0">Unite</tspan></text>
      </g>
    </g>
    <g transform="matrix(1, 0, 0, 1, 57.05, 274.02)" filter="url(#Union_2)">
      <path id="Union_2-2" data-name="Union 2" d="M0,21.844H0V7.337a1.52,1.52,0,0,1,3.04,0v14.22h0a8.067,8.067,0,0,0,16.135,0h0V13.2a1.52,1.52,0,0,1,3.04,0v8.641h0A11.107,11.107,0,0,1,0,21.844Zm9.583-1.52V1.52a1.52,1.52,0,0,1,3.04,0v18.8a1.52,1.52,0,0,1-3.04,0Zm4.794,0V4.652a1.52,1.52,0,0,1,3.04,0V20.325a1.52,1.52,0,0,1-3.04,0Zm-9.588,0V4.652a1.52,1.52,0,0,1,3.04,0V20.325a1.52,1.52,0,0,1-3.04,0Z" transform="translate(18.5 18.5)" stroke="rgba(0,0,0,0)" stroke-width="1" fill="url(#linear-gradient)"/>
    </g>
  </g>
</svg>
