<svg xmlns="http://www.w3.org/2000/svg" width="50" height="54" viewBox="0 0 50 54">
  <g id="icon" transform="translate(-3)">
    <rect id="_avatar_en" data-name="#avatar_en" width="50" height="54" rx="10" transform="translate(3)" fill="#c32939"/>
    <g id="Group_69771" data-name="Group 69771" transform="translate(-150.999 -43.999)">
      <rect id="Rectangle_149184" data-name="Rectangle 149184" width="24" height="24" transform="translate(166.999 58.999)" fill="none"/>
      <g id="Group_69770" data-name="Group 69770" transform="translate(170.581 59.214)">
        <path id="noun-profile-5084947" d="M188.469,40.05a5.05,5.05,0,1,1-1.479-3.571A5.05,5.05,0,0,1,188.469,40.05Zm-5.05,5.892A8.417,8.417,0,0,0,175,54.359V55.2a3.367,3.367,0,0,0,3.367,3.367h10.1a3.367,3.367,0,0,0,3.367-3.367v-.842a8.417,8.417,0,0,0-8.417-8.417Z" transform="translate(-175.002 -35)" fill="#fff"/>
        <path id="Subtraction_1" data-name="Subtraction 1" d="M5.05,23.568H0V10.943A8.424,8.424,0,0,1,4.208,12.07a8.431,8.431,0,0,1,3.081,3.08,8.429,8.429,0,0,1,1.128,4.209V20.2A3.368,3.368,0,0,1,5.05,23.568ZM0,10.1H0V0A5.02,5.02,0,0,1,3.571,1.479,5.02,5.02,0,0,1,5.05,5.051,5.017,5.017,0,0,1,3.571,8.622,5.02,5.02,0,0,1,0,10.1Z" transform="translate(8.417 0)" fill="#faa"/>
      </g>
    </g>
  </g>
</svg>
