<svg xmlns="http://www.w3.org/2000/svg" width="28" height="28" viewBox="0 0 28 28">
  <g id="Group_69728" data-name="Group 69728" transform="translate(-170 -674)">
    <rect id="Rectangle_149181" data-name="Rectangle 149181" width="28" height="28" transform="translate(170 674)" fill="none"/>
    <g id="noun-mortar-board-30543" transform="translate(65.712 561.155)">
      <path id="Path_43449" data-name="Path 43449" d="M110.683,129.422c-.078-1.4-1.014-1.638-1.014-1.638.078-1.326.39-1.638.39-1.638l8.189,2.886,8.462-2.886v4.289l-.234.468c-.741,1.014-2.847,1.755-3.822,1.95a26.386,26.386,0,0,1-6.707.312,10.284,10.284,0,0,1-5.888-2.067,1.873,1.873,0,0,0,.623-1.677Zm7.721-7.136-7.292,2.808,7.078,2.417,13.161-4.407s.819-.7-.2-1.014-12.674-4.211-12.674-4.211a1.112,1.112,0,0,0-.546,0c-.273.078-12.479,4.2-12.479,4.2s-.676.16-.6.6.312.44.312.44l3.016.988a5.344,5.344,0,0,0-1.17,3.8,1.4,1.4,0,0,0-.858,1.326,1.19,1.19,0,0,0,.806,1.144,7.434,7.434,0,0,1-2.678,5.122l2.262,1.118a2.911,2.911,0,0,0,1.924-2.73,26.294,26.294,0,0,0-.234-3.665,1.446,1.446,0,0,0,.624-1.066s-.026-.988-.754-1.248c0,0-.156-2.834,1.9-3.744l7.7-3.12s.78-.234,1.066.208a.738.738,0,0,1-.365,1.039" transform="translate(0 0)" fill="#fff"/>
    </g>
  </g>
</svg>
