<svg xmlns="http://www.w3.org/2000/svg" xmlns:xlink="http://www.w3.org/1999/xlink" width="28" height="28" viewBox="0 0 28 28">
  <defs>
    <clipPath id="clip-path">
      <rect id="Rectangle_148934" data-name="Rectangle 148934" width="26.929" height="19.395" fill="#fff"/>
    </clipPath>
  </defs>
  <g id="Group_69718" data-name="Group 69718" transform="translate(-295 -493)">
    <rect id="Rectangle_149171" data-name="Rectangle 149171" width="28" height="28" transform="translate(295 493)" fill="none"/>
    <g id="Group_69369" data-name="Group 69369" transform="translate(306.66 496.698)">
      <g id="Group_69379" data-name="Group 69379" transform="translate(-10.66 0.302)">
        <g id="Group_69378" data-name="Group 69378" transform="translate(0 0)" clip-path="url(#clip-path)">
          <path id="Path_42739" data-name="Path 42739" d="M21.395,8.326c-.135,0-.293.022-.427.022-.068,0-.136-.022-.2-.022h-7.2c.248-1.71,3.353-1.418,4.612-1.621a7.91,7.91,0,0,0,2.971-1.259A4.929,4.929,0,0,0,23.1.5c-.09-.652-1.125-.674-1.035,0,.517,3.848-2.723,5.107-5.984,5.422-1.8.181-3.374.45-3.555,2.408H5.85a.244.244,0,0,0-.112.022.622.622,0,0,0-.2-.022,5.534,5.534,0,1,0,4.027,9.313h7.783a5.536,5.536,0,1,0,4.05-9.313M8.369,14.467a.581.581,0,0,1-.584.586H6.435V16.4a.568.568,0,0,1-.585.584H4.724A.581.581,0,0,1,4.14,16.4v-1.35H2.79a.582.582,0,0,1-.585-.586V13.343a.6.6,0,0,1,.585-.585H4.14V11.408a.6.6,0,0,1,.584-.585H5.85a.581.581,0,0,1,.585.585v1.349h1.35a.6.6,0,0,1,.584.585ZM20.7,14.76a.821.821,0,1,1,0-1.642.821.821,0,0,1,0,1.642m1.687,1.687a.846.846,0,0,1-.832-.832.826.826,0,0,1,.832-.81.806.806,0,0,1,.81.81.826.826,0,0,1-.81.832m0-3.374a.826.826,0,0,1-.832-.81.845.845,0,0,1,.832-.832.825.825,0,0,1,.81.832.807.807,0,0,1-.81.81m1.687,1.687a.821.821,0,1,1,.81-.81.812.812,0,0,1-.81.81" transform="translate(0 0)" fill="#fff" fill-rule="evenodd"/>
        </g>
      </g>
    </g>
  </g>
</svg>
