<svg xmlns="http://www.w3.org/2000/svg" xmlns:xlink="http://www.w3.org/1999/xlink" width="28" height="28" viewBox="0 0 28 28">
  <defs>
    <clipPath id="clip-path">
      <rect id="Rectangle_148699" data-name="Rectangle 148699" width="26.898" height="17.02" fill="#fff"/>
    </clipPath>
  </defs>
  <g id="Group_69707" data-name="Group 69707" transform="translate(-295 -494)">
    <rect id="Rectangle_149160" data-name="Rectangle 149160" width="28" height="28" transform="translate(295 494)" fill="none"/>
    <g id="Group_68901" data-name="Group 68901" transform="translate(296 499)">
      <g id="Group_68900" data-name="Group 68900" transform="translate(0 0)" clip-path="url(#clip-path)">
        <path id="Path_42423" data-name="Path 42423" d="M.068,17.012C.217,17.137,1.8,15.6,1.976,15.23h.1a.914.914,0,0,0,.62-.372,4.978,4.978,0,0,1,2.526-1.784,5.808,5.808,0,0,1,1.834-.3c2.23,0,4.161,1.313,6.168,2.081a9.41,9.41,0,0,0,3.444.719,7.069,7.069,0,0,0,1.586-.173,5.959,5.959,0,0,0,3.22-1.759c.2-.224,1.412-1.586,1.561-1.809a.883.883,0,0,0-.247-1.238.733.733,0,0,0-.5-.148.847.847,0,0,0-.742.4l-.224.3a9.863,9.863,0,0,1-3.444,2.527,6.62,6.62,0,0,1-2.873-.1,18.39,18.39,0,0,1-2.9-1.115,20.131,20.131,0,0,0-3.3-1.263,6.994,6.994,0,0,0-1.759-.223,7.28,7.28,0,0,0-2.4.4,7.034,7.034,0,0,0-1.883.941,6.371,6.371,0,0,0-1.536,1.511.541.541,0,0,0-.074.124c-.2.372-1.462,2.8-1.091,3.071M20.631,3.883a3.134,3.134,0,1,1,3.146,3.147,3.135,3.135,0,0,1-3.146-3.147m-11.916-.4L14.66,2.272l.1.372.3,3.32c-.1-.05-6.813,1.858-8.2,2.229A12.657,12.657,0,0,0,9.8,9.309c3.939,1.065,6.838.445,9.389.594L16.444.786l-.025.025L16.394.762A1.053,1.053,0,0,0,15.181.018L8.293,1.43a1.034,1.034,0,0,0-.818,1.239,1.085,1.085,0,0,0,1.239.818" transform="translate(0 0)" fill="#fff" fill-rule="evenodd"/>
      </g>
    </g>
  </g>
</svg>
