<svg xmlns="http://www.w3.org/2000/svg" width="24" height="24" viewBox="0 0 24 24">
  <g id="Group_69779" data-name="Group 69779" transform="translate(-230 -728)">
    <rect id="Rectangle_149187" data-name="Rectangle 149187" width="24" height="24" transform="translate(230 728)" fill="none"/>
    <g id="noun-people-2725726" transform="translate(145.44 602.52)">
      <path id="Path_42754" data-name="Path 42754" d="M440.624,259.28a3.89,3.89,0,0,1-2.54.93,3.99,3.99,0,0,1-2.515-.905,5.108,5.108,0,0,0-1.006,1.182,7.882,7.882,0,0,1,2.062,4.652c.453.025.956.05,1.484.05a14.4,14.4,0,0,0,4.225-.578.544.544,0,0,0,.377-.553,6.782,6.782,0,0,0-2.087-4.778Z" transform="translate(-334.285 -123.016)" fill="#c32939"/>
      <path id="Path_42755" data-name="Path 42755" d="M457.912,133.2a2.716,2.716,0,1,1-2.716-2.716,2.716,2.716,0,0,1,2.716,2.716" transform="translate(-351.398)" fill="#c32939"/>
      <path id="Path_42756" data-name="Path 42756" d="M91.677,259.28a3.9,3.9,0,0,1-2.515.905,3.991,3.991,0,0,1-2.515-.905,6.673,6.673,0,0,0-2.087,4.753.576.576,0,0,0,.377.553,14.553,14.553,0,0,0,4.225.578c.528,0,1.031-.025,1.484-.05a7.882,7.882,0,0,1,2.062-4.652,5.888,5.888,0,0,0-1.031-1.182Z" transform="translate(0 -123.016)" fill="#c32939"/>
      <path id="Path_42757" data-name="Path 42757" d="M131.992,133.2a2.716,2.716,0,1,1-2.716-2.716,2.716,2.716,0,0,1,2.716,2.716" transform="translate(-40.114)" fill="#c32939"/>
      <path id="Path_42758" data-name="Path 42758" d="M254.637,297.92a3.945,3.945,0,0,1-5.03,0,6.783,6.783,0,0,0-2.087,4.778.576.576,0,0,0,.377.553,15.72,15.72,0,0,0,8.45,0,.544.544,0,0,0,.377-.553A6.588,6.588,0,0,0,254.637,297.92Z" transform="translate(-155.642 -159.921)" fill="#9b1826"/>
      <path id="Path_42759" data-name="Path 42759" d="M294.952,171.836a2.716,2.716,0,1,1-2.716-2.716,2.716,2.716,0,0,1,2.716,2.716" transform="translate(-195.756 -36.905)" fill="#9b1826"/>
    </g>
  </g>
</svg>
