<svg xmlns="http://www.w3.org/2000/svg" xmlns:xlink="http://www.w3.org/1999/xlink" width="28" height="28" viewBox="0 0 28 28">
  <defs>
    <clipPath id="clip-path">
      <rect id="Rectangle_148926" data-name="Rectangle 148926" width="24.167" height="26.591" fill="#fff"/>
    </clipPath>
  </defs>
  <g id="Group_69717" data-name="Group 69717" transform="translate(-174 -493)">
    <rect id="Rectangle_149170" data-name="Rectangle 149170" width="28" height="28" transform="translate(174 493)" fill="none"/>
    <g id="Group_69368" data-name="Group 69368" transform="translate(176 494)">
      <g id="Group_69367" data-name="Group 69367" transform="translate(0 0)" clip-path="url(#clip-path)">
        <path id="Path_42730" data-name="Path 42730" d="M18.041,16.644c-2.686,1.031-4.356,3.184-3.731,4.813s3.308,2.109,5.994,1.077c2.313-.888,3.869-2.609,3.859-4.109l0,0V0h0L8.021,3.116v16.67a6.931,6.931,0,0,0-4.159.37C1.177,21.188-.493,23.342.131,24.969s3.308,2.112,5.994,1.079c2.34-.9,3.909-2.651,3.859-4.163l0,0V10.937L22.2,8.58v7.692a6.932,6.932,0,0,0-4.159.371M9.987,8.7V7L22.2,4.639v1.7Z" transform="translate(0 0)" fill="#fff"/>
      </g>
    </g>
  </g>
</svg>
