<svg xmlns="http://www.w3.org/2000/svg" xmlns:xlink="http://www.w3.org/1999/xlink" width="28" height="28" viewBox="0 0 28 28">
  <defs>
    <clipPath id="clip-path">
      <rect id="Rectangle_148933" data-name="Rectangle 148933" width="18.666" height="27.81" fill="#fff"/>
    </clipPath>
  </defs>
  <g id="Group_69722" data-name="Group 69722" transform="translate(-52 -773)">
    <rect id="Rectangle_149175" data-name="Rectangle 149175" width="28" height="28" transform="translate(52 773)" fill="none"/>
    <g id="Group_69377" data-name="Group 69377" transform="translate(57 773)">
      <g id="Group_69376" data-name="Group 69376" transform="translate(0 0.001)" clip-path="url(#clip-path)">
        <path id="Path_42738" data-name="Path 42738" d="M17.171,0H1.492A1.49,1.49,0,0,0,0,1.493V26.317A1.49,1.49,0,0,0,1.492,27.81h15.68a1.49,1.49,0,0,0,1.494-1.493V1.493A1.49,1.49,0,0,0,17.171,0M6.638,16.9a3.278,3.278,0,0,0,1.947-.64c.293,2.48-3.2,2.8-3.039,2.693v.853h7.572v-.853c.133.08-3.279-.186-3.011-2.693a3.376,3.376,0,0,0,1.92.64,3.107,3.107,0,0,0,3.224-2.986,3.076,3.076,0,0,0-2.692-2.934v-.027A3.107,3.107,0,0,0,9.331,7.972a3.107,3.107,0,0,0-3.226,2.986v.027a3.078,3.078,0,0,0-2.694,2.934A3.109,3.109,0,0,0,6.638,16.9" transform="translate(0 0)" fill="#fff" fill-rule="evenodd"/>
      </g>
    </g>
  </g>
</svg>
