<svg xmlns="http://www.w3.org/2000/svg" width="28" height="28" viewBox="0 0 28 28">
  <g id="Group_70404" data-name="Group 70404" transform="translate(-3867 994)">
    <rect id="Rectangle_149538" data-name="Rectangle 149538" width="28" height="28" transform="translate(3867 -994)" fill="none"/>
    <g id="noun-help-2406001" transform="translate(3779.501 -1045.519)">
      <path id="Path_43945" data-name="Path 43945" d="M94.867,299.362a3.2,3.2,0,0,0-.548.135l-4.159,1.616-2.661.553.835,4.551s3.752-.263,5.625-.154c2.235.131,4.49,1.272,6.65.965a12.438,12.438,0,0,0,5.121-2.1s4.308-3.057,6.448-4.606a1.114,1.114,0,0,0,.223-1.51,1.1,1.1,0,0,0-1.4-.244c-1.1.682-5.6,3.354-5.6,3.354l-.678.135h0c0,.021.008.042.01.063a1.706,1.706,0,0,1-.43,1.332,2.168,2.168,0,0,1-1.364.616.675.675,0,0,1-.072,0l-5.17.065h0a.7.7,0,0,1-.546-.243.705.705,0,0,1-.16-.579l.7.121,5.17-.065c.865-.1,1.245-.575,1.183-1.181A1.307,1.307,0,0,0,102.859,301l-3.9-.661-2.429-.829a3.468,3.468,0,0,0-1.664-.146Z" transform="translate(0 -230.921)" fill="#fff" fill-rule="evenodd"/>
      <path id="Path_43946" data-name="Path 43946" d="M405.06,289.076a1.047,1.047,0,0,0-.366.148l-4.337,2.8a1.194,1.194,0,0,1,.089.086,1.924,1.924,0,0,1,.277.45l.611-.153c.113-.067,3.251-1.934,4.794-2.87-.014-.021-.016-.044-.031-.064h0a1.047,1.047,0,0,0-1.035-.394Z" transform="translate(-296.209 -222.057)" fill="#fff" fill-rule="evenodd"/>
      <path id="Path_43947" data-name="Path 43947" d="M369.777,279.95a.974.974,0,0,0-.363.154l-3.735,2.58.669.113a2.391,2.391,0,0,1,.54.163l3.957-2.552c-.013-.018-.014-.043-.029-.061h0a1.052,1.052,0,0,0-1.038-.4Z" transform="translate(-263.377 -213.416)" fill="#fff" fill-rule="evenodd"/>
      <path id="Path_43948" data-name="Path 43948" d="M326.606,280.128a.938.938,0,0,0-.36.156l-3.1,2.187,1.273.216,3.183-2.2a1.045,1.045,0,0,0-.994-.361Z" transform="translate(-223.105 -213.586)" fill="#fff" fill-rule="evenodd"/>
      <path id="Path_43949" data-name="Path 43949" d="M158.458,62.237a3.2,3.2,0,0,0,.548-.135l4.159-1.616,2.661-.553-.835-4.552s-3.752.263-5.625.154c-2.235-.131-4.49-1.272-6.65-.965a12.438,12.438,0,0,0-5.121,2.1s-4.308,3.057-6.448,4.606a1.114,1.114,0,0,0-.223,1.51,1.1,1.1,0,0,0,1.4.244c1.1-.682,5.6-3.354,5.6-3.354l.678-.135h0a.638.638,0,0,1-.01-.063,1.706,1.706,0,0,1,.43-1.332,2.169,2.169,0,0,1,1.364-.616h0a.687.687,0,0,1,.072,0l5.17-.065h0a.7.7,0,0,1,.546.243.706.706,0,0,1,.16.579l-.7-.121-5.17.065c-.865.1-1.245.575-1.183,1.181a1.308,1.308,0,0,0,1.177,1.193l3.9.661,2.429.829a3.467,3.467,0,0,0,1.664.146Z" transform="translate(-50.389 0)" fill="#fff" fill-rule="evenodd"/>
      <path id="Path_43950" data-name="Path 43950" d="M192.251,164.374a1.048,1.048,0,0,0,.366-.148l4.337-2.8a1.215,1.215,0,0,1-.089-.086,1.923,1.923,0,0,1-.277-.45l-.611.153c-.113.067-3.251,1.934-4.794,2.87.014.021.016.044.031.064h0a1.047,1.047,0,0,0,1.035.394Z" transform="translate(-98.166 -100.714)" fill="#fff" fill-rule="evenodd"/>
      <path id="Path_43951" data-name="Path 43951" d="M238.307,181.839a.966.966,0,0,0,.363-.154l3.735-2.58-.669-.113a2.39,2.39,0,0,1-.54-.163l-3.957,2.552c.013.018.014.043.029.061h0a1.052,1.052,0,0,0,1.038.4Z" transform="translate(-141.771 -117.695)" fill="#fff" fill-rule="evenodd"/>
      <path id="Path_43952" data-name="Path 43952" d="M294.108,189.727a.939.939,0,0,0,.36-.156l3.1-2.187-1.273-.215-3.183,2.2a1.046,1.046,0,0,0,.994.361Z" transform="translate(-194.674 -125.591)" fill="#fff" fill-rule="evenodd"/>
    </g>
  </g>
</svg>
