<svg xmlns="http://www.w3.org/2000/svg" width="28" height="28" viewBox="0 0 28 28">
  <g id="Group_69727" data-name="Group 69727" transform="translate(-291 -674)">
    <rect id="Rectangle_149182" data-name="Rectangle 149182" width="28" height="28" transform="translate(291 674)" fill="none"/>
    <g id="noun-honor-student-871291" transform="translate(127.827 674.007)">
      <path id="Path_43531" data-name="Path 43531" d="M168.6,27.09a15.416,15.416,0,0,1-.389-2.324,23.058,23.058,0,0,1,0-2.509,13.863,13.863,0,0,1,1.361-4.954,10.849,10.849,0,0,1,1.961-2.8,10.43,10.43,0,0,1,1.014-.9l.074-.047,2.212,8.254-.1.146A2.626,2.626,0,0,0,178.4,25.58a2.649,2.649,0,0,0,1.113-2.438,2.714,2.714,0,0,0-.388-1.121c-.05-.071-.049-.077,1.072-4.264.617-2.306,1.132-4.214,1.144-4.241.019-.043.035-.038.154.047.073.052.277.217.452.367a12.193,12.193,0,0,1,3.853,7.614,18.31,18.31,0,0,1,.077,3.222,15.408,15.408,0,0,1-.389,2.324l-.062.226H168.657Zm7.926-1.955a1.8,1.8,0,0,1-1.33-1.342,1.758,1.758,0,0,1,2.084-2.084,1.788,1.788,0,0,1,1.344,1.344A1.761,1.761,0,0,1,176.521,25.134Zm1.59-4.045a3.036,3.036,0,0,0-.926-.274,2.684,2.684,0,0,0-1.408.236l-.126.064-1.007-3.758c-.554-2.067-1-3.765-.992-3.773a.465.465,0,0,1,.162.1,5.609,5.609,0,0,0,3.618,1.025,5.7,5.7,0,0,0,2.626-.878,2.456,2.456,0,0,1,.21-.131c.006.006-1.99,7.456-2,7.465a.881.881,0,0,1-.158-.072Zm-1.6-8.691a5.2,5.2,0,0,1-1.495-.426A4.8,4.8,0,0,1,172.5,9.067a4.838,4.838,0,0,1-.163-2.03c.056-.464.068-.514.121-.493s1.19.627,2.087,1.111l1.152.617c.445.238.932.5,1.083.583l.274.15.124-.069.33-.178.754-.4.946-.507.6-.322.891-.479c.377-.2.734-.4.792-.442.185-.127.183-.13.251.434a4.838,4.838,0,0,1-.163,2.03,4.8,4.8,0,0,1-2.512,2.906,5.081,5.081,0,0,1-1.105.36,6.045,6.045,0,0,1-1.459.066Zm.315-4.5-.617-.332-.754-.4c-.711-.382-2.257-1.211-3.051-1.635L171.243,4.9,170.3,4.4a5.517,5.517,0,0,1-.686-.391,6.122,6.122,0,0,1,.727-.412l1.138-.609,1.33-.714L174.7,1.257l.919-.492.6-.323L176.853.1l.208-.11.45.242.834.448.7.377c.173.094.587.316.919.493l.98.524.768.411,1.159.621.946.507a5.517,5.517,0,0,1,.686.391,6.439,6.439,0,0,1-.754.426c-.441.233-1.231.662-1.371.744-.075.044-.279.152-.452.24s-.457.236-.631.33l-.727.391-1.152.617-.919.492-.576.308-.622.333a1.964,1.964,0,0,1-.247.12,1.781,1.781,0,0,1-.229-.113Z" transform="translate(0 0)" fill="#fff"/>
      <g id="Group_69662" data-name="Group 69662" transform="translate(168.178 27.564)">
        <path id="Path_43532" data-name="Path 43532" d="M.177-1.595l-.011,0-.013,0A.046.046,0,0,1,.121-1.6a.041.041,0,0,1-.011-.03.04.04,0,0,1,.011-.03.045.045,0,0,1,.032-.011l.013,0,.011,0v.017L.166-1.654l-.011,0a.024.024,0,0,0-.018.007.028.028,0,0,0-.006.02.027.027,0,0,0,.006.019A.024.024,0,0,0,.154-1.6l.011,0,.011-.005Z" transform="translate(-0.109 1.672)" fill="#fff"/>
      </g>
      <g id="Group_69663" data-name="Group 69663" transform="translate(168.263 27.583)">
        <path id="Path_43533" data-name="Path 43533" d="M.232-1.247l-.005,0H.222a.016.016,0,0,0-.011,0,.02.02,0,0,0,0,.014V-1.2H.188v-.06H.207v.01a.022.022,0,0,1,.008-.008.023.023,0,0,1,.011,0H.232Z" transform="translate(-0.188 1.266)" fill="#fff"/>
      </g>
      <g id="Group_69664" data-name="Group 69664" transform="translate(168.312 27.583)">
        <path id="Path_43534" data-name="Path 43534" d="M.159-1.234v.006H.114a.015.015,0,0,0,0,.01.021.021,0,0,0,.012,0l.012,0,.013-.005v.014l-.014,0-.014,0A.035.035,0,0,1,.1-1.211a.029.029,0,0,1-.009-.023A.032.032,0,0,1,.1-1.257a.036.036,0,0,1,.025-.008.029.029,0,0,1,.022.009.029.029,0,0,1,.009.022ZM.139-1.24a.011.011,0,0,0,0-.008.01.01,0,0,0-.008,0,.016.016,0,0,0-.01,0,.014.014,0,0,0,0,.009Z" transform="translate(-0.094 1.266)" fill="#fff"/>
      </g>
      <g id="Group_69665" data-name="Group 69665" transform="translate(168.386 27.583)">
        <path id="Path_43535" data-name="Path 43535" d="M.125-1.231a.013.013,0,0,0-.008,0,.006.006,0,0,0,0,.005.008.008,0,0,0,0,.006l.007,0a.01.01,0,0,0,.008,0,.013.013,0,0,0,0-.01v0Zm.03-.008V-1.2H.135v-.009A.032.032,0,0,1,.127-1.2l-.011,0A.023.023,0,0,1,.1-1.208a.019.019,0,0,1-.005-.014A.016.016,0,0,1,.1-1.237a.042.042,0,0,1,.024-.005H.135v0a.008.008,0,0,0,0-.007.019.019,0,0,0-.011,0l-.011,0-.01,0v-.015l.012,0H.124a.032.032,0,0,1,.023.007.026.026,0,0,1,.008.021Z" transform="translate(-0.094 1.266)" fill="#fff"/>
      </g>
      <g id="Group_69666" data-name="Group 69666" transform="translate(168.457 27.568)">
        <path id="Path_43536" data-name="Path 43536" d="M.06-1.578v.017H.08v.014H.06v.026s0,0,0,.005l.006,0h.01V-1.5H.062a.025.025,0,0,1-.017,0,.022.022,0,0,1,0-.016v-.026H.031v-.014H.04v-.017Z" transform="translate(-0.031 1.578)" fill="#fff"/>
      </g>
      <g id="Group_69667" data-name="Group 69667" transform="translate(168.513 27.583)">
        <path id="Path_43537" data-name="Path 43537" d="M.159-1.234v.006H.114a.015.015,0,0,0,0,.01.021.021,0,0,0,.012,0l.012,0,.013-.005v.014l-.014,0-.014,0A.035.035,0,0,1,.1-1.211a.029.029,0,0,1-.009-.023A.032.032,0,0,1,.1-1.257a.036.036,0,0,1,.025-.008.029.029,0,0,1,.022.009.029.029,0,0,1,.009.022ZM.139-1.24a.011.011,0,0,0,0-.008.01.01,0,0,0-.008,0,.016.016,0,0,0-.01,0,.014.014,0,0,0,0,.009Z" transform="translate(-0.094 1.266)" fill="#fff"/>
      </g>
      <g id="Group_69668" data-name="Group 69668" transform="translate(168.587 27.562)">
        <path id="Path_43538" data-name="Path 43538" d="M.139-1.671V-1.7H.159v.083H.139v-.008a.029.029,0,0,1-.009.008l-.011,0A.024.024,0,0,1,.1-1.627.037.037,0,0,1,.094-1.65.036.036,0,0,1,.1-1.673.024.024,0,0,1,.12-1.682a.02.02,0,0,1,.011,0,.032.032,0,0,1,.009.008Zm-.013.039a.01.01,0,0,0,.009,0,.02.02,0,0,0,0-.013.018.018,0,0,0,0-.013.01.01,0,0,0-.009,0,.01.01,0,0,0-.009,0,.021.021,0,0,0,0,.013.022.022,0,0,0,0,.013A.01.01,0,0,0,.126-1.632Z" transform="translate(-0.094 1.703)" fill="#fff"/>
      </g>
      <g id="Group_69669" data-name="Group 69669" transform="translate(168.708 27.562)">
        <path id="Path_43539" data-name="Path 43539" d="M.22-1.632a.01.01,0,0,0,.009,0,.02.02,0,0,0,0-.013.018.018,0,0,0,0-.013.01.01,0,0,0-.009,0,.012.012,0,0,0-.01,0,.023.023,0,0,0,0,.013.022.022,0,0,0,0,.013A.012.012,0,0,0,.22-1.632ZM.207-1.671a.024.024,0,0,1,.008-.008.023.023,0,0,1,.011,0,.022.022,0,0,1,.018.009.034.034,0,0,1,.008.023.035.035,0,0,1-.008.023.022.022,0,0,1-.018.008l-.011,0L.207-1.628v.008H.188V-1.7H.207Z" transform="translate(-0.188 1.703)" fill="#fff"/>
      </g>
      <g id="Group_69670" data-name="Group 69670" transform="translate(168.779 27.585)">
        <path id="Path_43540" data-name="Path 43540" d="M.031-1.234H.05l.016.041L.08-1.234H.1l-.025.066a.033.033,0,0,1-.009.014.02.02,0,0,1-.013,0H.04v-.012H.046a.011.011,0,0,0,.008,0,.009.009,0,0,0,0-.005v0Z" transform="translate(-0.031 1.234)" fill="#fff"/>
      </g>
      <g id="Group_69671" data-name="Group 69671" transform="translate(168.898 27.565)">
        <path id="Path_43541" data-name="Path 43541" d="M.2-1.641H.224v.03h.03v-.03H.275v.08H.254v-.034H.224v.034H.2Z" transform="translate(-0.203 1.641)" fill="#fff"/>
      </g>
      <g id="Group_69672" data-name="Group 69672" transform="translate(168.984 27.583)">
        <path id="Path_43542" data-name="Path 43542" d="M.159-1.234v.006H.114a.015.015,0,0,0,0,.01.021.021,0,0,0,.012,0l.012,0,.013-.005v.014l-.014,0-.014,0A.035.035,0,0,1,.1-1.211a.029.029,0,0,1-.009-.023A.032.032,0,0,1,.1-1.257a.036.036,0,0,1,.025-.008.029.029,0,0,1,.022.009.029.029,0,0,1,.009.022ZM.139-1.24a.011.011,0,0,0,0-.008.01.01,0,0,0-.008,0,.016.016,0,0,0-.01,0,.014.014,0,0,0,0,.009Z" transform="translate(-0.094 1.266)" fill="#fff"/>
      </g>
      <g id="Group_69673" data-name="Group 69673" transform="translate(169.058 27.583)">
        <path id="Path_43543" data-name="Path 43543" d="M.147-1.262v.015l-.008,0-.008,0a.016.016,0,0,0-.013.005.018.018,0,0,0,0,.013.017.017,0,0,0,0,.013.017.017,0,0,0,.013,0H.139l.008,0v.016l-.009,0H.129A.036.036,0,0,1,.1-1.211a.029.029,0,0,1-.009-.023A.031.031,0,0,1,.1-1.257a.037.037,0,0,1,.026-.008l.009,0,.009,0Z" transform="translate(-0.094 1.266)" fill="#fff"/>
      </g>
      <g id="Group_69674" data-name="Group 69674" transform="translate(169.12 27.568)">
        <path id="Path_43544" data-name="Path 43544" d="M.06-1.578v.017H.08v.014H.06v.026s0,0,0,.005l.006,0h.01V-1.5H.062a.025.025,0,0,1-.017,0,.022.022,0,0,1,0-.016v-.026H.031v-.014H.04v-.017Z" transform="translate(-0.031 1.578)" fill="#fff"/>
      </g>
      <g id="Group_69675" data-name="Group 69675" transform="translate(169.176 27.583)">
        <path id="Path_43545" data-name="Path 43545" d="M.127-1.252a.013.013,0,0,0-.011,0,.024.024,0,0,0,0,.014.022.022,0,0,0,0,.013.013.013,0,0,0,.011,0,.01.01,0,0,0,.009,0,.02.02,0,0,0,0-.013.021.021,0,0,0,0-.014A.01.01,0,0,0,.127-1.252Zm0-.014a.033.033,0,0,1,.024.008.031.031,0,0,1,.009.024.029.029,0,0,1-.009.023A.032.032,0,0,1,.127-1.2.035.035,0,0,1,.1-1.211a.03.03,0,0,1-.008-.023A.032.032,0,0,1,.1-1.257.036.036,0,0,1,.127-1.266Z" transform="translate(-0.094 1.266)" fill="#fff"/>
      </g>
      <g id="Group_69676" data-name="Group 69676" transform="translate(169.256 27.583)">
        <path id="Path_43546" data-name="Path 43546" d="M.232-1.247l-.005,0H.222a.016.016,0,0,0-.011,0,.02.02,0,0,0,0,.014V-1.2H.188v-.06H.207v.01a.022.022,0,0,1,.008-.008.023.023,0,0,1,.011,0H.232Z" transform="translate(-0.188 1.266)" fill="#fff"/>
      </g>
      <g id="Group_69677" data-name="Group 69677" transform="translate(168.175 27.672)">
        <path id="Path_43547" data-name="Path 43547" d="M.093-1.7v.012H.083l-.006,0a.007.007,0,0,0,0,.005v0H.092v.014H.075v.047H.056v-.047H.047V-1.68H.056v0A.018.018,0,0,1,.061-1.7a.029.029,0,0,1,.018,0Z" transform="translate(-0.047 1.703)" fill="#fff"/>
      </g>
      <g id="Group_69678" data-name="Group 69678" transform="translate(168.23 27.693)">
        <path id="Path_43548" data-name="Path 43548" d="M.232-1.247l-.005,0H.222a.016.016,0,0,0-.011,0,.02.02,0,0,0,0,.014V-1.2H.188v-.06H.207v.01a.022.022,0,0,1,.008-.008.023.023,0,0,1,.011,0H.232Z" transform="translate(-0.188 1.266)" fill="#fff"/>
      </g>
      <g id="Group_69679" data-name="Group 69679" transform="translate(168.279 27.693)">
        <path id="Path_43549" data-name="Path 43549" d="M.127-1.252a.013.013,0,0,0-.011,0,.024.024,0,0,0,0,.014.022.022,0,0,0,0,.013.013.013,0,0,0,.011,0,.01.01,0,0,0,.009,0,.02.02,0,0,0,0-.013.021.021,0,0,0,0-.014A.01.01,0,0,0,.127-1.252Zm0-.014a.033.033,0,0,1,.024.008.031.031,0,0,1,.009.024.029.029,0,0,1-.009.023A.032.032,0,0,1,.127-1.2.035.035,0,0,1,.1-1.211a.03.03,0,0,1-.008-.023A.032.032,0,0,1,.1-1.257.036.036,0,0,1,.127-1.266Z" transform="translate(-0.094 1.266)" fill="#fff"/>
      </g>
      <g id="Group_69680" data-name="Group 69680" transform="translate(168.359 27.693)">
        <path id="Path_43550" data-name="Path 43550" d="M.243-1.254l.008-.008a.023.023,0,0,1,.011,0,.018.018,0,0,1,.015.007.026.026,0,0,1,.006.018V-1.2H.264v-.035a.023.023,0,0,0,0-.009.006.006,0,0,0-.006,0,.009.009,0,0,0-.008,0,.023.023,0,0,0,0,.013v.03H.226v-.031a.025.025,0,0,0,0-.013.006.006,0,0,0-.006,0,.009.009,0,0,0-.008,0,.023.023,0,0,0,0,.013v.03H.187v-.06H.207v.009a.024.024,0,0,1,.008-.008.018.018,0,0,1,.01,0,.02.02,0,0,1,.011,0,.019.019,0,0,1,.008.008Z" transform="translate(-0.187 1.266)" fill="#fff"/>
      </g>
      <g id="Group_69681" data-name="Group 69681" transform="translate(168.504 27.678)">
        <path id="Path_43551" data-name="Path 43551" d="M.06-1.578v.017H.08v.014H.06v.026s0,0,0,.005l.006,0h.01V-1.5H.062a.025.025,0,0,1-.017,0,.022.022,0,0,1,0-.016v-.026H.031v-.014H.04v-.017Z" transform="translate(-0.031 1.578)" fill="#fff"/>
      </g>
      <g id="Group_69682" data-name="Group 69682" transform="translate(168.564 27.672)">
        <path id="Path_43552" data-name="Path 43552" d="M.248-1.657v.037H.229v-.028a.063.063,0,0,0,0-.011.008.008,0,0,0,0,0l0,0,0,0a.012.012,0,0,0-.01,0,.023.023,0,0,0,0,.013v.03H.188V-1.7H.207v.032a.032.032,0,0,1,.009-.008.022.022,0,0,1,.011,0,.019.019,0,0,1,.016.007.028.028,0,0,1,.005.018Z" transform="translate(-0.188 1.703)" fill="#fff"/>
      </g>
      <g id="Group_69683" data-name="Group 69683" transform="translate(168.638 27.693)">
        <path id="Path_43553" data-name="Path 43553" d="M.159-1.234v.006H.114a.015.015,0,0,0,0,.01.021.021,0,0,0,.012,0l.012,0,.013-.005v.014l-.014,0-.014,0A.035.035,0,0,1,.1-1.211a.029.029,0,0,1-.009-.023A.032.032,0,0,1,.1-1.257a.036.036,0,0,1,.025-.008.029.029,0,0,1,.022.009.029.029,0,0,1,.009.022ZM.139-1.24a.011.011,0,0,0,0-.008.01.01,0,0,0-.008,0,.016.016,0,0,0-.01,0,.014.014,0,0,0,0,.009Z" transform="translate(-0.094 1.266)" fill="#fff"/>
      </g>
      <g id="Group_69684" data-name="Group 69684" transform="translate(168.756 27.675)">
        <path id="Path_43554" data-name="Path 43554" d="M.2-1.641H.226l.03.055v-.055H.275v.08H.252L.223-1.615v.055H.2Z" transform="translate(-0.203 1.641)" fill="#fff"/>
      </g>
      <g id="Group_69685" data-name="Group 69685" transform="translate(168.842 27.693)">
        <path id="Path_43555" data-name="Path 43555" d="M.127-1.252a.013.013,0,0,0-.011,0,.024.024,0,0,0,0,.014.022.022,0,0,0,0,.013.013.013,0,0,0,.011,0,.01.01,0,0,0,.009,0,.02.02,0,0,0,0-.013.021.021,0,0,0,0-.014A.01.01,0,0,0,.127-1.252Zm0-.014a.033.033,0,0,1,.024.008.031.031,0,0,1,.009.024.029.029,0,0,1-.009.023A.032.032,0,0,1,.127-1.2.035.035,0,0,1,.1-1.211a.03.03,0,0,1-.008-.023A.032.032,0,0,1,.1-1.257.036.036,0,0,1,.127-1.266Z" transform="translate(-0.094 1.266)" fill="#fff"/>
      </g>
      <g id="Group_69686" data-name="Group 69686" transform="translate(168.921 27.694)">
        <path id="Path_43556" data-name="Path 43556" d="M.172-1.2v-.037h.02v.006s0,.008,0,.013v.02a.007.007,0,0,0,0,0l0,0h0a.01.01,0,0,0,.009,0,.02.02,0,0,0,0-.013v-.03H.232v.06H.213v-.008L.2-1.175l-.011,0a.021.021,0,0,1-.016-.006A.03.03,0,0,1,.172-1.2Z" transform="translate(-0.172 1.234)" fill="#fff"/>
      </g>
      <g id="Group_69687" data-name="Group 69687" transform="translate(169 27.693)">
        <path id="Path_43557" data-name="Path 43557" d="M.248-1.24V-1.2H.229v-.028a.063.063,0,0,0,0-.011.008.008,0,0,0,0,0l0,0,0,0a.012.012,0,0,0-.01,0,.023.023,0,0,0,0,.013v.03H.188v-.06H.207v.009a.032.032,0,0,1,.009-.008.022.022,0,0,1,.011,0,.019.019,0,0,1,.016.007.028.028,0,0,1,.005.018Z" transform="translate(-0.188 1.266)" fill="#fff"/>
      </g>
      <g id="Group_69688" data-name="Group 69688" transform="translate(169.117 27.675)">
        <path id="Path_43558" data-name="Path 43558" d="M.2-1.641H.237a.037.037,0,0,1,.024.007.024.024,0,0,1,.008.019.024.024,0,0,1-.008.02.037.037,0,0,1-.024.007H.224v.027H.2Zm.021.015V-1.6H.235a.012.012,0,0,0,.009,0,.01.01,0,0,0,0-.008.008.008,0,0,0,0-.008.013.013,0,0,0-.009,0Z" transform="translate(-0.203 1.641)" fill="#fff"/>
      </g>
      <g id="Group_69689" data-name="Group 69689" transform="translate(169.197 27.693)">
        <path id="Path_43559" data-name="Path 43559" d="M.232-1.247l-.005,0H.222a.016.016,0,0,0-.011,0,.02.02,0,0,0,0,.014V-1.2H.188v-.06H.207v.01a.022.022,0,0,1,.008-.008.023.023,0,0,1,.011,0H.232Z" transform="translate(-0.188 1.266)" fill="#fff"/>
      </g>
      <g id="Group_69690" data-name="Group 69690" transform="translate(169.246 27.693)">
        <path id="Path_43560" data-name="Path 43560" d="M.127-1.252a.013.013,0,0,0-.011,0,.024.024,0,0,0,0,.014.022.022,0,0,0,0,.013.013.013,0,0,0,.011,0,.01.01,0,0,0,.009,0,.02.02,0,0,0,0-.013.021.021,0,0,0,0-.014A.01.01,0,0,0,.127-1.252Zm0-.014a.033.033,0,0,1,.024.008.031.031,0,0,1,.009.024.029.029,0,0,1-.009.023A.032.032,0,0,1,.127-1.2.035.035,0,0,1,.1-1.211a.03.03,0,0,1-.008-.023A.032.032,0,0,1,.1-1.257.036.036,0,0,1,.127-1.266Z" transform="translate(-0.094 1.266)" fill="#fff"/>
      </g>
      <g id="Group_69691" data-name="Group 69691" transform="translate(169.313 27.672)">
        <path id="Path_43561" data-name="Path 43561" d="M-.065-1.68h.019v.059A.024.024,0,0,1-.052-1.6.019.019,0,0,1-.068-1.6h-.01v-.012h0a.007.007,0,0,0,.007,0,.013.013,0,0,0,0-.009Zm0-.023h.019v.015H-.065Z" transform="translate(0.078 1.703)" fill="#fff"/>
      </g>
      <g id="Group_69692" data-name="Group 69692" transform="translate(169.359 27.693)">
        <path id="Path_43562" data-name="Path 43562" d="M.159-1.234v.006H.114a.015.015,0,0,0,0,.01.021.021,0,0,0,.012,0l.012,0,.013-.005v.014l-.014,0-.014,0A.035.035,0,0,1,.1-1.211a.029.029,0,0,1-.009-.023A.032.032,0,0,1,.1-1.257a.036.036,0,0,1,.025-.008.029.029,0,0,1,.022.009.029.029,0,0,1,.009.022ZM.139-1.24a.011.011,0,0,0,0-.008.01.01,0,0,0-.008,0,.016.016,0,0,0-.01,0,.014.014,0,0,0,0,.009Z" transform="translate(-0.094 1.266)" fill="#fff"/>
      </g>
      <g id="Group_69693" data-name="Group 69693" transform="translate(169.433 27.693)">
        <path id="Path_43563" data-name="Path 43563" d="M.147-1.262v.015l-.008,0-.008,0a.016.016,0,0,0-.013.005.018.018,0,0,0,0,.013.017.017,0,0,0,0,.013.017.017,0,0,0,.013,0H.139l.008,0v.016l-.009,0H.129A.036.036,0,0,1,.1-1.211a.029.029,0,0,1-.009-.023A.031.031,0,0,1,.1-1.257a.037.037,0,0,1,.026-.008l.009,0,.009,0Z" transform="translate(-0.094 1.266)" fill="#fff"/>
      </g>
      <g id="Group_69694" data-name="Group 69694" transform="translate(169.495 27.678)">
        <path id="Path_43564" data-name="Path 43564" d="M.06-1.578v.017H.08v.014H.06v.026s0,0,0,.005l.006,0h.01V-1.5H.062a.025.025,0,0,1-.017,0,.022.022,0,0,1,0-.016v-.026H.031v-.014H.04v-.017Z" transform="translate(-0.031 1.578)" fill="#fff"/>
      </g>
    </g>
  </g>
</svg>
