<svg id="Group_70036" data-name="Group 70036" xmlns="http://www.w3.org/2000/svg" width="48" height="48" viewBox="0 0 48 48">
  <rect id="_avatar_en" data-name="#avatar_en" width="48" height="48" rx="12" fill="#c32939"/>
  <g id="Group_70035" data-name="Group 70035">
    <rect id="Rectangle_149354" data-name="Rectangle 149354" width="24" height="24" transform="translate(12 12)" fill="none"/>
    <g id="noun-anatomy-55094" transform="translate(-78.55 -4.69)">
      <path id="Path_43154" data-name="Path 43154" d="M174.927,83.431H157.11V62.22h17.817Zm-17.534-.283h17.251V62.5H157.392Z" transform="translate(-63.535 -43.461)" fill="#fff"/>
      <path id="Path_43155" data-name="Path 43155" d="M102.348,39.909a11.611,11.611,0,1,1,11.8-11.609A11.718,11.718,0,0,1,102.348,39.909Zm0-23.077A11.469,11.469,0,1,0,114,28.3,11.577,11.577,0,0,0,102.348,16.831Z" fill="#fff"/>
      <path id="Path_43156" data-name="Path 43156" d="M168.988,68.718a2.285,2.285,0,1,1-2.285-2.285A2.285,2.285,0,0,1,168.988,68.718ZM166.9,80.1V86.2a1.14,1.14,0,0,0,2.263,0V73.594h5.274a.99.99,0,1,0,0-1.98H158.889a.99.99,0,1,0,0,1.98h5.467V86.2a.99.99,0,1,0,1.98,0V80.1Z" transform="translate(-64.276 -47.482)" fill="#fff"/>
      <path id="Path_43157" data-name="Path 43157" d="M170.029,71.632l5.368-3.888a.981.981,0,0,1,1.345.333l.026.05a.976.976,0,0,1-.3,1.349L170.627,73.7v5.979l3.5,5.027a.981.981,0,0,1-.411,1.322l-.05.023a.98.98,0,0,1-1.325-.4l-3.98-5.532h-.585l-3.868,5.551a.968.968,0,0,1-1.322.374L162.545,86a.963.963,0,0,1-.329-1.329l3.6-4.966V73.7l-5.91-4.456a.988.988,0,0,1-.353-1.345l.009-.042a.975.975,0,0,1,1.336-.348l5.28,4.125Zm-1.864-5.182a2.285,2.285,0,1,0,2.285,2.285A2.285,2.285,0,0,0,168.165,66.45Z" transform="translate(-65.739 -47.498)" fill="#fff"/>
    </g>
  </g>
</svg>
