<svg xmlns="http://www.w3.org/2000/svg" width="28" height="28" viewBox="0 0 28 28">
  <g id="Group_70405" data-name="Group 70405" transform="translate(-4038 841)">
    <rect id="Rectangle_149539" data-name="Rectangle 149539" width="28" height="28" transform="translate(4038 -841)" fill="none"/>
    <g id="noun-raise-hand-4160048" transform="translate(3920.158 -854.911)">
      <path id="Path_43953" data-name="Path 43953" d="M207.3,69.768a5.928,5.928,0,1,1-5.928-5.928,5.928,5.928,0,0,1,5.928,5.928" transform="translate(-71.714 -47.363)" fill="#fff"/>
      <path id="Path_43954" data-name="Path 43954" d="M141.164,13.916a2.46,2.46,0,0,0-2.59,2.446v1.5c.086,5.266-1.065,9.064-3.309,10.934-.288.23-.575.46-.892.691a8.4,8.4,0,0,1-4.748,1.439,8.5,8.5,0,0,1-5.41-1.928,7.064,7.064,0,0,0-4.374,6.675v4.345a1.228,1.228,0,0,0,1.237,1.237h17.15a1.228,1.228,0,0,0,1.237-1.237V35.669a4.465,4.465,0,0,0-.029-.633,7.84,7.84,0,0,1,1.237-4.949c1.957-2.935,2.906-7.05,2.82-12.229V16.534a2.581,2.581,0,0,0-2.331-2.618Z" fill="#fff"/>
    </g>
  </g>
</svg>
