<svg xmlns="http://www.w3.org/2000/svg" xmlns:xlink="http://www.w3.org/1999/xlink" width="28" height="28" viewBox="0 0 28 28">
  <defs>
    <clipPath id="clip-path">
      <rect id="Rectangle_148720" data-name="Rectangle 148720" width="18.984" height="27.245" fill="#fff"/>
    </clipPath>
  </defs>
  <g id="Group_69710" data-name="Group 69710" transform="translate(-295 -635)">
    <rect id="Rectangle_149163" data-name="Rectangle 149163" width="28" height="28" transform="translate(295 635)" fill="none"/>
    <g id="Group_68916" data-name="Group 68916" transform="translate(300 635)">
      <g id="Group_68915" data-name="Group 68915" transform="translate(0 0)" clip-path="url(#clip-path)">
        <path id="Path_42426" data-name="Path 42426" d="M17.054,17.867a2.756,2.756,0,0,0,1.077,2,2.977,2.977,0,0,1-2.091.919,1.989,1.989,0,0,0,.443-.856,6.369,6.369,0,0,0,.316-2.059ZM12.4,21.131V26.2a1.061,1.061,0,0,1-2.123,0V21.637L7.771,19.8a2.7,2.7,0,0,1-.729.127L6.091,22.9a1.068,1.068,0,0,1-.411.571L1.656,26.263a.957.957,0,0,1-.6.158A1.052,1.052,0,0,1,.2,25.978,1.027,1.027,0,0,1,.454,24.52l3.737-2.6.983-3.137a1.924,1.924,0,0,1-.222-1.2l.79-7.319L3.747,11.341l1.142,3.073a1.053,1.053,0,0,1-.6,1.362,1.569,1.569,0,0,1-.379.063,1.018,1.018,0,0,1-.983-.7L1.466,11.215a1.043,1.043,0,0,1,.475-1.3S5.174,7.888,6.124,7.508a4.546,4.546,0,0,1,4.181.761c.508.443,2.439,2.914,2.439,2.914h3.644a1.061,1.061,0,0,1,0,2.123H12.3a1.035,1.035,0,0,1-.792-.348L9.925,11.215l-.792,6.843v.095l2.853,2.123a1.067,1.067,0,0,1,.41.856M8.532,6.019A3.009,3.009,0,1,0,5.522,3.01a3.008,3.008,0,0,0,3.01,3.009m7.508,8.745a2.943,2.943,0,0,1,2.091.886,2.871,2.871,0,0,0-1.077,2H16.8a6.015,6.015,0,0,0-.285-1.964,2.242,2.242,0,0,0-.475-.918m-.381,0h0a1.822,1.822,0,0,1,.633.981,7.831,7.831,0,0,1,.286,1.9c-.19,0-.348-.032-.506-.032a2.693,2.693,0,0,0-2.124-2.123,3.207,3.207,0,0,1,1.711-.728m-1.9.949a2.47,2.47,0,0,1,2.059,1.9,18.2,18.2,0,0,1-2.851-.285,3.012,3.012,0,0,1,.791-1.616m4.531.127a2.925,2.925,0,0,1,.666,1.68,13.622,13.622,0,0,1-1.648.095,2.42,2.42,0,0,1,.982-1.775m-5.355,1.743a18.928,18.928,0,0,0,2.883.285,2.413,2.413,0,0,1-2.059,1.964,3.017,3.017,0,0,1-.824-2.059Zm6.05.19a3.012,3.012,0,0,1-.7,1.933,2.49,2.49,0,0,1-.982-1.838,14.487,14.487,0,0,0,1.677-.095m-2.913.095h.506a7.176,7.176,0,0,1-.318,2,1.447,1.447,0,0,1-.633.919,3.039,3.039,0,0,1-1.68-.761,2.611,2.611,0,0,0,2.124-2.154" transform="translate(0 0)" fill="#fff" fill-rule="evenodd"/>
      </g>
    </g>
  </g>
</svg>
