<svg xmlns="http://www.w3.org/2000/svg" xmlns:xlink="http://www.w3.org/1999/xlink" width="40.407" height="11.732" viewBox="0 0 40.407 11.732">
  <defs>
    <clipPath id="clip-path">
      <rect id="Rectangle_148931" data-name="Rectangle 148931" width="40.407" height="11.732" fill="#fff"/>
    </clipPath>
  </defs>
  <g id="Group_69372" data-name="Group 69372" clip-path="url(#clip-path)">
    <path id="Path_42736" data-name="Path 42736" d="M6.5,9.99A2.46,2.46,0,0,0,8.59,11.109h.062a2.9,2.9,0,0,0,.934-.187,2.93,2.93,0,0,0,.529-.342A2.51,2.51,0,0,0,8.59,6.068a2.51,2.51,0,0,0-2.52,2.52,3.4,3.4,0,0,0,.124.811,1.292,1.292,0,0,1,.124.31L6.5,9.99m33.113.249a3.919,3.919,0,0,0-.31-3.485c-1.215-1.743-3.921-1.961-4.42-1.992L33.861,4.2,33.8,4.17A48.985,48.985,0,0,0,27.854,3.7c-1-.466-1.835-.934-2.552-1.338C22.72.934,21.038,0,16.183,0a25.479,25.479,0,0,0-11.3,2.894c-.342.031-.654.063-.965.063L3.143,1.868l.9.124c.373.03.53-.158.373-.436A1.412,1.412,0,0,0,3.487.964L.5.654C.124.622-.031.809.124,1.089a1.274,1.274,0,0,0,.934.56l.466.062,1,1.369C.809,3.267.809,3.36.809,3.641c0,2.272-.28,2.8-.342,2.895L0,6.161V8.526L.28,8.9a1.308,1.308,0,0,0,.312.934,4.09,4.09,0,0,0,2.645.87,14.419,14.419,0,0,0,2.615-.529A1.242,1.242,0,0,1,5.7,9.9a1.992,1.992,0,0,1-.126-.311,3.505,3.505,0,0,1-.155-1,3.175,3.175,0,1,1,5.633,1.992,3.1,3.1,0,0,1-.311.342,1.977,1.977,0,0,1-.405.312c3.673.032,14.006.062,21.07.219a1.267,1.267,0,0,1-.28-.312c-.094-.124-.155-.219-.249-.343a3.357,3.357,0,0,1-.435-1.586,3.19,3.19,0,0,1,6.38,0,3.024,3.024,0,0,1-.53,1.741,2.2,2.2,0,0,1-.25.313,1.5,1.5,0,0,1-.311.31c.654.032,1.214.032,1.681.032,2.458,0,2.925-.188,2.987-.623.032-.126.063-.435-.778-.747m-5.975,1.493a2.589,2.589,0,0,0,1.495-.5,1.641,1.641,0,0,0,.343-.312,2.632,2.632,0,0,0,.684-1.71,2.521,2.521,0,1,0-5.042,0,2.371,2.371,0,0,0,.592,1.586,1.665,1.665,0,0,0,.311.343,2.083,2.083,0,0,0,.56.342,2.4,2.4,0,0,0,1.058.249" transform="translate(0 0)" fill="#fff" fill-rule="evenodd"/>
  </g>
</svg>
