<svg xmlns="http://www.w3.org/2000/svg" xmlns:xlink="http://www.w3.org/1999/xlink" width="28" height="28" viewBox="0 0 28 28">
  <defs>
    <clipPath id="clip-path">
      <rect id="Rectangle_148925" data-name="Rectangle 148925" width="27.555" height="18.83" fill="#fff"/>
    </clipPath>
  </defs>
  <g id="Group_69716" data-name="Group 69716" transform="translate(-52 -493)">
    <rect id="Rectangle_149169" data-name="Rectangle 149169" width="28" height="28" transform="translate(52 493)" fill="none"/>
    <g id="Group_69366" data-name="Group 69366" transform="translate(52 498)">
      <g id="Group_69366-2" data-name="Group 69366" transform="translate(0 0)" clip-path="url(#clip-path)">
        <path id="Path_42727" data-name="Path 42727" d="M8.459.678A1.071,1.071,0,0,0,7.389,1.75v.394h4.943V1.75A1.071,1.071,0,0,0,11.261.678Z" transform="translate(-4.783 -0.439)" fill="#fff"/>
        <path id="Path_42728" data-name="Path 42728" d="M28.522,19.734a4.166,4.166,0,1,0,2.945-1.22,4.15,4.15,0,0,0-2.945,1.22" transform="translate(-17.671 -11.984)" fill="#fff"/>
        <path id="Path_42729" data-name="Path 42729" d="M18.981,2.563A3.309,3.309,0,0,0,15.759,0H11.8a3.306,3.306,0,0,0-3.22,2.563H2.246A2.245,2.245,0,0,0,0,4.808V16.584A2.245,2.245,0,0,0,2.246,18.83H25.311a2.245,2.245,0,0,0,2.245-2.246V4.808a2.245,2.245,0,0,0-2.245-2.245ZM13.8,15.76A5.064,5.064,0,1,1,18.86,10.7,5.062,5.062,0,0,1,13.8,15.76M24.231,4.926H21.872a.43.43,0,0,1,0-.86h2.359a.43.43,0,0,1,0,.86" transform="translate(0 0)" fill="#fff"/>
      </g>
    </g>
  </g>
</svg>
