<svg xmlns="http://www.w3.org/2000/svg" width="48" height="48" viewBox="0 0 48 48">
  <g id="Group_70042" data-name="Group 70042" transform="translate(-32 -344)">
    <g id="icon" transform="translate(32 344)">
      <rect id="_avatar_en" data-name="#avatar_en" width="48" height="48" rx="12" fill="#c32939"/>
    </g>
    <g id="Group_70041" data-name="Group 70041">
      <rect id="Rectangle_149357" data-name="Rectangle 149357" width="24" height="24" transform="translate(44 357)" fill="none"/>
      <g id="noun-programming-5528820" transform="translate(-43.504 277.75)">
        <path id="Path_43171" data-name="Path 43171" d="M227.309,82.916a.671.671,0,0,0-.671-.666H215.813a.674.674,0,0,0-.671.666V83.5H227.3v-.588Zm-11.114.353h-.22a.392.392,0,0,1,0-.784h.22A.392.392,0,0,1,216.2,83.269Zm1.523,0h-.22a.392.392,0,0,1,0-.784h.22A.392.392,0,0,1,217.719,83.269Zm1.523,0h-.22a.392.392,0,0,1,0-.784h.22A.392.392,0,0,1,219.242,83.269Z" transform="translate(-121.922)" fill="#fff"/>
        <path id="Path_43172" data-name="Path 43172" d="M168.8,200.7h-1.352v7.524h16.4V200.7h-1.308v4.555a1.455,1.455,0,0,1-1.455,1.455H170.264a1.468,1.468,0,0,1-1.46-1.45Z" transform="translate(-76.368 -113.145)" fill="#fff"/>
        <path id="Path_43173" data-name="Path 43173" d="M215.358,135.582a.667.667,0,0,0,.666.666H226.85a.668.668,0,0,0,.671-.666h0V127.75H215.358Zm7.964-5.369a.392.392,0,0,1,.568-.539l1.935,2.052a.394.394,0,0,1,0,.539l-1.935,2.057a.392.392,0,0,1-.568-.539L225,132Zm-3.483,3.644,2.317-4.017a.391.391,0,0,1,.676.392l-2.317,4.017A.391.391,0,0,1,219.84,133.858Zm-2.988-2.131,1.935-2.052a.392.392,0,0,1,.568.539L217.675,132l1.68,1.783a.392.392,0,0,1-.568.539l-1.935-2.052a.394.394,0,0,1,0-.539Z" transform="translate(-122.129 -43.462)" fill="#fff"/>
        <path id="Path_43174" data-name="Path 43174" d="M135.153,172.894v.828a.074.074,0,0,0,.069.069h3.5a.074.074,0,0,0,.069-.069v-.828a.393.393,0,0,1,.392-.392h7.783V162.01a.569.569,0,0,0-.568-.568h-2.5v.98h1.7a.393.393,0,0,1,.392.392v8.312a.393.393,0,0,1-.392.392H128.408a.393.393,0,0,1-.392-.392v-8.312a.393.393,0,0,1,.392-.392h1.744v-.98h-2.6a.569.569,0,0,0-.568.568V172.5h7.779a.393.393,0,0,1,.392.392Z" transform="translate(-37.71 -75.645)" fill="#fff"/>
        <path id="Path_43175" data-name="Path 43175" d="M110.623,425.91h-8.763v.436a.853.853,0,0,1-.852.852h-3.5a.853.853,0,0,1-.852-.852v-.436H87.9a.393.393,0,0,0-.392.392v.774a1.169,1.169,0,0,0,1.166,1.166h21.185a1.169,1.169,0,0,0,1.166-1.166V426.3a.4.4,0,0,0-.4-.392Z" transform="translate(0 -328.27)" fill="#fff"/>
      </g>
    </g>
  </g>
</svg>
