<svg id="Group_70046" data-name="Group 70046" xmlns="http://www.w3.org/2000/svg" width="48" height="48" viewBox="0 0 48 48">
  <rect id="_avatar_en" data-name="#avatar_en" width="48" height="48" rx="12" fill="#c32939"/>
  <g id="Group_70045" data-name="Group 70045">
    <rect id="Rectangle_149359" data-name="Rectangle 149359" width="24" height="24" transform="translate(12 12)" fill="none"/>
    <g id="noun-sensorial-activities-3316223" transform="translate(-78.303 -13.094)">
      <path id="Path_43146" data-name="Path 43146" d="M283.55,27.992a2.833,2.833,0,1,1,2.831,2.831A2.836,2.836,0,0,1,283.55,27.992Z" transform="translate(-184.318)" fill="#fff"/>
      <path id="Path_43147" data-name="Path 43147" d="M450.255,120.752a.372.372,0,0,1,0-.375l2.839-4.913a.389.389,0,0,1,.649,0l2.835,4.913a.373.373,0,0,1,0,.375.376.376,0,0,1-.326.188h-5.67a.376.376,0,0,1-.326-.188Z" transform="translate(-343.272 -85.964)" fill="#fff"/>
      <path id="Path_43148" data-name="Path 43148" d="M297.43,211a2.749,2.749,0,1,1,2.749,2.749A2.752,2.752,0,0,1,297.43,211Z" transform="translate(-197.556 -174.633)" fill="#fff"/>
      <path id="Path_43149" data-name="Path 43149" d="M95.587,131.618H90.678a.371.371,0,0,1-.375-.375v-4.913a.374.374,0,0,1,.375-.375h4.909a.374.374,0,0,1,.375.375v4.913A.372.372,0,0,1,95.587,131.618Z" transform="translate(0 -96.137)" fill="#fff"/>
      <path id="Path_43150" data-name="Path 43150" d="M127.355,317.3a.356.356,0,0,1-.03.049l-3.023,4.14a1.108,1.108,0,0,1-.975.578,1.088,1.088,0,0,1-.608-.18l-2.97-1.935v5.194a.376.376,0,0,1-.375.375h-8.168a.376.376,0,0,1-.375-.375v-5.186L108,321.74a1.344,1.344,0,0,1-.724.21,1.374,1.374,0,0,1-1.241-.787l-1.766-3.735a1.317,1.317,0,0,1,.259-1.493,1.315,1.315,0,0,1,2.134.409l1.1,2.528,2.824-1.961a1.441,1.441,0,0,1,.806-.259l8.014-.1a1.464,1.464,0,0,1,.863.27l2.839,2.044,1.871-2.719c.57-.72,1.2-.926,1.793-.634a1.328,1.328,0,0,1,.588,1.792Z" transform="translate(-13.197 -276.812)" fill="#fff"/>
    </g>
  </g>
</svg>
