<svg xmlns="http://www.w3.org/2000/svg" xmlns:xlink="http://www.w3.org/1999/xlink" width="28" height="28" viewBox="0 0 28 28">
  <defs>
    <clipPath id="clip-path">
      <rect id="Rectangle_148930" data-name="Rectangle 148930" width="13.638" height="26.939" fill="#fff"/>
    </clipPath>
  </defs>
  <g id="Group_69719" data-name="Group 69719" transform="translate(-52 -633)">
    <rect id="Rectangle_149172" data-name="Rectangle 149172" width="28" height="28" transform="translate(52 633)" fill="none"/>
    <g id="Group_69371" data-name="Group 69371" transform="translate(59 634)">
      <g id="Group_69370" data-name="Group 69370" clip-path="url(#clip-path)">
        <path id="Path_42733" data-name="Path 42733" d="M12.785,37.534a.853.853,0,0,0-.853.853,5.114,5.114,0,0,1-10.227,0,.852.852,0,1,0-1.7,0,6.823,6.823,0,0,0,5.966,6.757v4.322H2.822a1.151,1.151,0,1,0,0,2.3h7.994a1.151,1.151,0,1,0,0-2.3H7.672V45.145a6.827,6.827,0,0,0,5.935-6.1l-.255-.024.255.024q.031-.324.031-.657a.853.853,0,0,0-.853-.853" transform="translate(0 -24.829)" fill="#fff"/>
        <rect id="Rectangle_148928" data-name="Rectangle 148928" width="7.851" height="1.273" transform="translate(2.894 5.597)" fill="#fff"/>
        <path id="Path_42734" data-name="Path 42734" d="M12.474,0A3.926,3.926,0,0,0,8.549,3.925v.4H16.4v-.4A3.925,3.925,0,0,0,12.474,0" transform="translate(-5.655)" fill="#fff"/>
        <path id="Path_42735" data-name="Path 42735" d="M8.549,33.946a3.925,3.925,0,0,0,7.851,0V31.583H8.549Z" transform="translate(-5.655 -20.892)" fill="#fff"/>
        <rect id="Rectangle_148929" data-name="Rectangle 148929" width="7.851" height="1.273" transform="translate(2.894 8.144)" fill="#fff"/>
      </g>
    </g>
  </g>
</svg>
