<svg xmlns="http://www.w3.org/2000/svg" width="48" height="48" viewBox="0 0 48 48">
  <g id="Group_70038" data-name="Group 70038" transform="translate(-32 -344)">
    <g id="icon" transform="translate(32 344)">
      <rect id="_avatar_en" data-name="#avatar_en" width="48" height="48" rx="12" fill="#c32939"/>
    </g>
    <g id="Group_70037" data-name="Group 70037">
      <rect id="Rectangle_149355" data-name="Rectangle 149355" width="24" height="24" transform="translate(44 357)" fill="none"/>
      <g id="noun-computer-arts-5339274" transform="translate(-42.965 303.598)">
        <path id="Path_43158" data-name="Path 43158" d="M107.53,65.087a1.057,1.057,0,0,1,1.055,1.055v4.606l-.085.023a1.51,1.51,0,0,0-.223.069c-.042.015-.081.038-.123.058-.062.031-.123.062-.185.1l-.116.081a1.587,1.587,0,0,0-.154.127,1.242,1.242,0,0,0-.1.1,1.567,1.567,0,0,0-.127.154,1.222,1.222,0,0,0-.081.116,1.722,1.722,0,0,0-.1.185,1.125,1.125,0,0,0-.058.119,1.661,1.661,0,0,0-.073.235c-.008.035-.019.065-.027.1v.015h3.674v-.015c-.008-.035-.019-.065-.027-.1a1.524,1.524,0,0,0-.073-.235c-.015-.038-.038-.077-.058-.116-.031-.065-.065-.127-.1-.189a1.189,1.189,0,0,0-.081-.112c-.042-.054-.085-.108-.131-.158-.031-.035-.065-.065-.1-.1a1.569,1.569,0,0,0-.154-.127c-.038-.027-.073-.054-.116-.081a1.417,1.417,0,0,0-.185-.1,1.189,1.189,0,0,0-.123-.058,2.166,2.166,0,0,0-.223-.069l-.085-.023v-4.61a1.829,1.829,0,0,0-1.825-1.825h-2.484V57a1.6,1.6,0,0,0-1.594-1.594H88.556a1.6,1.6,0,0,0-1.59,1.6V68.957a1.594,1.594,0,0,0,1.59,1.594h14.9a1.6,1.6,0,0,0,1.594-1.594v-3.87ZM96.007,70.313a1.036,1.036,0,1,1,1.036-1.036A1.036,1.036,0,0,1,96.007,70.313Zm8.418-3.35a1.049,1.049,0,0,1-1.047,1.047H88.629a1.048,1.048,0,0,1-1.044-1.047v-9.77a1.047,1.047,0,0,1,1.044-1.044h14.749a1.048,1.048,0,0,1,1.047,1.044Z" transform="translate(0 0)" fill="#fff"/>
        <path id="Path_43159" data-name="Path 43159" d="M530.56,443.08V444a1.872,1.872,0,1,0,3.743,0v-.917Z" transform="translate(-423.461 -370.082)" fill="#fff"/>
        <path id="Path_43160" data-name="Path 43160" d="M213.181,131.278v-1.552a.248.248,0,0,0-.246-.246h-3.709a.248.248,0,0,0-.246.246v3.709a.248.248,0,0,0,.246.246h1.552a2.827,2.827,0,0,1,2.4-2.4Z" transform="translate(-116.476 -70.715)" fill="#fff"/>
        <path id="Path_43161" data-name="Path 43161" d="M267.2,187.862a.248.248,0,0,0,.246-.246v-1.375a2.052,2.052,0,0,0-1.621,1.621Z" transform="translate(-170.743 -124.901)" fill="#fff"/>
        <path id="Path_43162" data-name="Path 43162" d="M268.224,186.329V187.7a1.018,1.018,0,0,1-1.017,1.017h-1.375a2.044,2.044,0,1,0,2.391-2.391Z" transform="translate(-170.749 -124.985)" fill="#fff"/>
        <path id="Path_43163" data-name="Path 43163" d="M280.61,355.34a.266.266,0,1,0,.266.266A.272.272,0,0,0,280.61,355.34Z" transform="translate(-184.602 -286.325)" fill="#fff"/>
        <path id="Path_43164" data-name="Path 43164" d="M214.945,456.4H208.9a.508.508,0,0,0-.508.508v.081h7.063v-.081a.511.511,0,0,0-.508-.508Z" transform="translate(-115.915 -382.798)" fill="#fff"/>
        <path id="Path_43165" data-name="Path 43165" d="M236.9,406.17h4.471v1.51H236.9Z" transform="translate(-143.13 -334.848)" fill="#fff"/>
        <path id="Path_43166" data-name="Path 43166" d="M132.619,88.836H117.87a.27.27,0,0,0-.273.273v9.77a.273.273,0,0,0,.273.277h14.749a.276.276,0,0,0,.277-.277v-9.77A.27.27,0,0,0,132.619,88.836Zm-6.289,9.243a2.815,2.815,0,0,1-2.784-2.43h-1.552a1.018,1.018,0,0,1-1.017-1.017v-3.7a1.018,1.018,0,0,1,1.017-1.017H125.7a1.018,1.018,0,0,1,1.017,1.017v1.552a2.813,2.813,0,0,1-.389,5.6Zm3.72-6.574h-1.294a.385.385,0,1,1,0-.77h1.294a.385.385,0,0,1,0,.77Zm1.606-1.386h-2.9a.385.385,0,1,1,0-.77h2.9a.385.385,0,0,1,0,.77Z" transform="translate(-29.241 -31.917)" fill="#fff"/>
      </g>
    </g>
  </g>
</svg>
