<svg xmlns="http://www.w3.org/2000/svg" width="85.532" height="85.532" viewBox="0 0 85.532 85.532">
  <g id="Group_70070" data-name="Group 70070" transform="translate(-27 -291)">
    <rect id="Rectangle_149147" data-name="Rectangle 149147" width="85.532" height="85.532" rx="11" transform="translate(27 291)" fill="#c32939"/>
    <g id="noun-housing-area-4803908" transform="translate(-42.25 291.801)">
      <path id="Path_43429" data-name="Path 43429" d="M201.25,157.5h2.238v5.594H201.25Z" transform="translate(-98.386 -123.047)" fill="#fff"/>
      <path id="Path_43430" data-name="Path 43430" d="M423.394,31.96,417.8,26.366a.559.559,0,0,0-.794,0l-5.594,5.594a.559.559,0,0,0-.162.4V44.664h12.307V32.357A.559.559,0,0,0,423.394,31.96Zm-2.075,8.788a.559.559,0,0,1-.559.559h-6.713a.559.559,0,0,1-.559-.559V34.035a.559.559,0,0,1,.559-.559h6.713a.559.559,0,0,1,.559.559Z" transform="translate(-295.306 -0.001)" fill="#fff"/>
      <path id="Path_43431" data-name="Path 43431" d="M148.75,157.5h2.238v5.594H148.75Z" transform="translate(-49.144 -123.047)" fill="#fff"/>
      <path id="Path_43432" data-name="Path 43432" d="M516.25,157.5h2.238v5.594H516.25Z" transform="translate(-393.594 -123.047)" fill="#fff"/>
      <path id="Path_43433" data-name="Path 43433" d="M463.75,157.5h2.238v5.594H463.75Z" transform="translate(-344.352 -123.047)" fill="#fff"/>
      <path id="Path_43434" data-name="Path 43434" d="M481.25,393.75h3.356V402.7H481.25Z" transform="translate(-360.832 -344.501)" fill="#fff"/>
      <path id="Path_43435" data-name="Path 43435" d="M116.112,302.672H112.8v-5.9a6.215,6.215,0,0,0-.16-8.525.546.546,0,0,0-.783,0,6.215,6.215,0,0,0-.16,8.525v5.9h-3.31V290.925H96.25v12.307a.564.564,0,0,0,.162.4.548.548,0,0,0,.39.164h2.759v-9.51a.556.556,0,0,1,.552-.559h4.414a.548.548,0,0,1,.39.164.563.563,0,0,1,.162.4v9.51h14.345v-9.51a.556.556,0,0,1,.552-.559h4.414a.548.548,0,0,1,.39.164.563.563,0,0,1,.162.4v9.51H127.7a.548.548,0,0,0,.39-.164.564.564,0,0,0,.162-.4V290.925H116.112Z" transform="translate(0 -245.592)" fill="#fff"/>
      <path id="Path_43436" data-name="Path 43436" d="M166.25,393.75h3.356V402.7H166.25Z" transform="translate(-65.525 -344.501)" fill="#fff"/>
      <path id="Path_43437" data-name="Path 43437" d="M108.557,32.356a.559.559,0,0,0-.162-.4L102.8,26.365a.559.559,0,0,0-.794,0l-5.594,5.594a.559.559,0,0,0-.162.4V44.663h12.307Zm-2.238,8.391a.559.559,0,0,1-.559.559H99.047a.559.559,0,0,1-.559-.559V34.034a.559.559,0,0,1,.559-.559h6.713a.559.559,0,0,1,.559.559Z" transform="translate(0 0)" fill="#fff"/>
    </g>
  </g>
</svg>
