<svg xmlns="http://www.w3.org/2000/svg" width="48" height="48" viewBox="0 0 48 48">
  <g id="Group_70422" data-name="Group 70422" transform="translate(-32 -344)">
    <g id="Group_70048" data-name="Group 70048">
      <g id="icon" transform="translate(32 344)">
        <rect id="_avatar_en" data-name="#avatar_en" width="48" height="48" rx="12" fill="#c32939"/>
      </g>
      <g id="Group_70047" data-name="Group 70047">
        <rect id="Rectangle_149360" data-name="Rectangle 149360" width="24" height="24" transform="translate(44 356)" fill="none"/>
      </g>
    </g>
    <g id="noun-citizenship-4516795" transform="translate(-258.516 236.721)">
      <path id="Path_43181" data-name="Path 43181" d="M482.02,120.361a8.778,8.778,0,0,0-4.728.16,9.723,9.723,0,0,1-3.446.321v-.681a.882.882,0,1,0-1.763,0v21.718a.53.53,0,0,0,.521.521h.761a.53.53,0,0,0,.521-.521V128.335a7.169,7.169,0,0,0,.922.08,11.784,11.784,0,0,0,2.765-.4,7.9,7.9,0,0,1,4.247-.16.556.556,0,0,0,.441-.08.493.493,0,0,0,.2-.4V120.8a.69.69,0,0,0-.441-.441Z" transform="translate(-156.504)" fill="#fff"/>
      <path id="Path_43183" data-name="Path 43183" d="M311.45,353.36a4.963,4.963,0,0,1-5.53,0,3.553,3.553,0,0,0-2.4,3.366v1.923a.992.992,0,0,0,1,1h8.335a.992.992,0,0,0,1-1v-1.923a3.553,3.553,0,0,0-2.4-3.366Z" transform="translate(0 -217.331)" fill="#fff"/>
      <path id="Path_43184" data-name="Path 43184" d="M330.959,255.247a3.246,3.246,0,0,0,6.491,0A3.266,3.266,0,0,0,334.165,252a3.224,3.224,0,0,0-3.206,3.246Z" transform="translate(-25.479 -123.225)" fill="#fff"/>
    </g>
  </g>
</svg>
