<svg xmlns="http://www.w3.org/2000/svg" xmlns:xlink="http://www.w3.org/1999/xlink" width="28" height="28" viewBox="0 0 28 28">
  <defs>
    <clipPath id="clip-path">
      <rect id="Rectangle_148932" data-name="Rectangle 148932" width="19.704" height="26.563" fill="#fff"/>
    </clipPath>
  </defs>
  <g id="Group_69721" data-name="Group 69721" transform="translate(-295 -633)">
    <rect id="Rectangle_149174" data-name="Rectangle 149174" width="28" height="28" transform="translate(295 633)" fill="none"/>
    <g id="Group_69375" data-name="Group 69375" transform="translate(299 634)">
      <g id="Group_69374" data-name="Group 69374" transform="translate(0 0)" clip-path="url(#clip-path)">
        <path id="Path_42737" data-name="Path 42737" d="M1.37,26.563H18.52A1.186,1.186,0,0,0,19.7,25.378L19.674,1.87A1.528,1.528,0,0,0,18.52.436L18.3.374a1.173,1.173,0,0,0-1.4.873l-.934,4.208a1.808,1.808,0,0,1-.313.717.206.206,0,0,0-.155-.125l-1.589-.467L14,5.206a.3.3,0,0,0-.22-.4.305.305,0,0,0-.4.218l-.686,2.307a.7.7,0,0,0-.248-.03L8.6,7.513,8.043,5.424c-.031-.062-.031-.092-.063-.156A.8.8,0,0,0,7.3,4.707H4.178a.753.753,0,0,0-.717.747H3.18V5.268a.526.526,0,0,0-.468-.561H.467A.525.525,0,0,0,0,5.268v2.65a.524.524,0,0,0,.467.562H.811v3.337a.769.769,0,0,0,.717.81h.934a.769.769,0,0,0,.717-.81v-.28h.28v2.15L3.368,16.71a4.189,4.189,0,0,1-.314,1.216l-2.4,4.459a1.055,1.055,0,0,0-.095.747.968.968,0,0,0,.5.5l.75.25a.792.792,0,0,0,.248.03,1.121,1.121,0,0,0,.935-.591l2.277-4.553A3.906,3.906,0,0,0,5.612,17.3l.062-2.463H6.39l.686,1.528a2.567,2.567,0,0,1,.188,1.186l-.656,4.768a.9.9,0,0,0,.157.655.611.611,0,0,0,.531.281,2.05,2.05,0,0,1-.781.467c-2.494.593-.934.218-5.237,1.278-.623.125-1.122.562-1.09.9,0,.374.529.655,1.182.655M5.331,4.458A2.229,2.229,0,1,0,3.118,2.245,2.229,2.229,0,0,0,5.331,4.458m3.8,4.707,3.056-.157-.095.22a.385.385,0,0,0,.25.436h.062a.389.389,0,0,0,.188-.032l-.406,1.092-.623-.375.186-.624a.329.329,0,0,0-.248-.4.317.317,0,0,0-.406.217l-.4,1.34-.81-.31L9.352,9.385a.738.738,0,0,1-.218-.219M9.7,11.94v.344l.529.187-.375,1.279a.34.34,0,0,0,.218.436h.065a.352.352,0,0,0,.343-.218l.4-1.371a.779.779,0,0,0,.655-.531.806.806,0,0,0-.03-.656.49.49,0,0,0-.188-.248l.032-.156.622.343-.4,1.153a3.189,3.189,0,0,0,.092,2.151l-.092,2.464a3.272,3.272,0,0,1,.186,1.932,2.214,2.214,0,0,1-1.4,1.216l-.655.374-.5.283L9.6,17.3a3.6,3.6,0,0,0-.187-1.526l-1.4-3.43V11.317Zm-6.516-1.5v-3.9h.28v3.9ZM13.717,6.235l1.5.437a1.916,1.916,0,0,1-.561.374l-.25.126a3.207,3.207,0,0,0-1.059.811.346.346,0,0,0-.095-.25Z" transform="translate(0 0)" fill="#fff" fill-rule="evenodd"/>
      </g>
    </g>
  </g>
</svg>
