<svg xmlns="http://www.w3.org/2000/svg" width="28" height="28" viewBox="0 0 28 28">
  <g id="Group_69729" data-name="Group 69729" transform="translate(-48 -674)">
    <rect id="Rectangle_149180" data-name="Rectangle 149180" width="28" height="28" transform="translate(48 674)" fill="none"/>
    <g id="noun-bachelor-4770197" transform="translate(-39.5 389.738)">
      <path id="Path_43569" data-name="Path 43569" d="M587.3,324.671V327.9a.925.925,0,0,1-.922.922h-.48a1.479,1.479,0,0,0,.019-.249V324a1.479,1.479,0,0,0-.019-.249h.48a.925.925,0,0,1,.922.922Z" transform="translate(-472.141 -29.829)" fill="#fff"/>
      <path id="Path_43570" data-name="Path 43570" d="M88.883,328.569a1.484,1.484,0,0,0,.019.249h-.48a.925.925,0,0,1-.922-.922v-3.227a.925.925,0,0,1,.922-.922h.48a1.484,1.484,0,0,0-.019.249Z" transform="translate(0 -29.827)" fill="#fff"/>
      <path id="Path_43571" data-name="Path 43571" d="M138.442,311.135a2.354,2.354,0,0,0-.313,1.484v.032s0,.009-.009.014a2.093,2.093,0,0,0,0,3.005s.009.009.009.014v.032a2.354,2.354,0,0,0,.313,1.484c-2.084.032-4.176.092-6.232.175a.946.946,0,0,1-.678-.258.92.92,0,0,1-.281-.664v-4.573a.92.92,0,0,1,.281-.664.909.909,0,0,1,.673-.258c2.047.083,4.139.143,6.237.175Z" transform="translate(-41.446 -17.712)" fill="#fff"/>
      <path id="Path_43572" data-name="Path 43572" d="M439.438,311.9v4.573h0a.92.92,0,0,1-.917.922h-.037c-2.047-.083-4.14-.143-6.237-.175a2.354,2.354,0,0,0,.313-1.484V315.7s0-.009.009-.014a2.331,2.331,0,0,0,.636-1.5,1.962,1.962,0,0,0-.23-.913,3.385,3.385,0,0,0-.406-.59s-.009-.009-.009-.014v-.032a2.354,2.354,0,0,0-.313-1.484c2.084-.032,4.176-.092,6.232-.175a.954.954,0,0,1,.678.258.92.92,0,0,1,.281.664Z" transform="translate(-326.584 -17.726)" fill="#fff"/>
      <path id="Path_43573" data-name="Path 43573" d="M326.516,347.013a1.383,1.383,0,1,1-1.383-1.383,1.383,1.383,0,0,1,1.383,1.383" transform="translate(-223.803 -50.557)" fill="#fff"/>
      <path id="Path_43574" data-name="Path 43574" d="M275.359,295.534a1.244,1.244,0,0,1-.207-.29,1.65,1.65,0,0,1-.009-.383,1.47,1.47,0,0,0-.189-.973,1.452,1.452,0,0,0-.871-.484,1.408,1.408,0,0,1-.355-.125,1.313,1.313,0,0,1-.221-.295,1.476,1.476,0,0,0-.738-.687,1.447,1.447,0,0,0-.977.12.686.686,0,0,1-.747,0,1.451,1.451,0,0,0-.977-.12,1.477,1.477,0,0,0-.738.687,1.311,1.311,0,0,1-.221.295,1.435,1.435,0,0,1-.35.125,1.451,1.451,0,0,0-.876.484,1.47,1.47,0,0,0-.189.973,1.65,1.65,0,0,1-.009.383,1.241,1.241,0,0,1-.207.29,1.206,1.206,0,0,0,0,1.844,1.24,1.24,0,0,1,.207.29,1.649,1.649,0,0,1,.009.383,1.471,1.471,0,0,0,.189.973,1.452,1.452,0,0,0,.871.484,1.407,1.407,0,0,1,.355.125,1.311,1.311,0,0,1,.221.295,1.476,1.476,0,0,0,.738.687.934.934,0,0,0,.29.046,2,2,0,0,0,.687-.166.686.686,0,0,1,.747,0,1.179,1.179,0,0,0,1.715-.567,1.313,1.313,0,0,1,.221-.295,1.435,1.435,0,0,1,.35-.125,1.451,1.451,0,0,0,.876-.484,1.47,1.47,0,0,0,.189-.973,1.651,1.651,0,0,1,.009-.383,1.241,1.241,0,0,1,.207-.29,1.206,1.206,0,0,0,0-1.844Zm-3.941,3.227a2.306,2.306,0,1,1,1.629-.675A2.306,2.306,0,0,1,271.418,298.761Z" transform="translate(-170.089)" fill="#fff"/>
      <path id="Path_43575" data-name="Path 43575" d="M303.031,449.928v4.181a.46.46,0,0,1-.2.383.471.471,0,0,1-.258.078.433.433,0,0,1-.171-.032l-2.134-.853-2.134.853a.47.47,0,0,1-.429-.046.46.46,0,0,1-.2-.383v-4.186a2.165,2.165,0,0,0,1.134.922,1.855,1.855,0,0,0,.572.092,2.772,2.772,0,0,0,1.014-.231l.046-.014a.192.192,0,0,1,.046.018,2.337,2.337,0,0,0,1.59.134,2.184,2.184,0,0,0,1.129-.917Z" transform="translate(-198.936 -149.356)" fill="#fff"/>
    </g>
  </g>
</svg>
