<svg xmlns="http://www.w3.org/2000/svg" xmlns:xlink="http://www.w3.org/1999/xlink" width="28" height="28" viewBox="0 0 28 28">
  <defs>
    <clipPath id="clip-path">
      <rect id="Rectangle_148724" data-name="Rectangle 148724" width="26.73" height="23.711" fill="#fff"/>
    </clipPath>
  </defs>
  <g id="Group_69714" data-name="Group 69714" transform="translate(-52 -914)">
    <rect id="Rectangle_149167" data-name="Rectangle 149167" width="28" height="28" transform="translate(52 914)" fill="none"/>
    <g id="Group_68922" data-name="Group 68922" transform="translate(53 916)">
      <g id="Group_68922-2" data-name="Group 68922" transform="translate(0 0)" clip-path="url(#clip-path)">
        <path id="Path_42430" data-name="Path 42430" d="M21.912,10.5a9.3,9.3,0,0,0,2.723-.454m1.814-1.765c-1.966-1.563-2.244-2.32-3.1-2.95-.857-.605-1.311-.454-1.336-.706,0,0,.176-1.285-.227-1.513-.2-.1-.909,1.286-.909,1.286a3.839,3.839,0,0,0-4.084,1.74.549.549,0,0,1-.076.126,3.248,3.248,0,0,1-.175-.454.779.779,0,0,0,.023-.479.749.749,0,0,0-.907-.555l-2.016.53-2.371-.731a1.813,1.813,0,0,0-.908-.076A1.79,1.79,0,0,0,8.977,6.618l.479,2.395a7.524,7.524,0,0,0-4.439.605,1.943,1.943,0,0,1-1.133.126c-.428,0-2.825.53-2.849,2.622S.882,15.165,0,15.9c.832.127,3.479.731,3.555-3.706A1.408,1.408,0,0,1,4.564,10.8c-1.184,1.438-.377,3.606-.5,4.034-.1.4-.983,1.16-1.135,2.2a56.882,56.882,0,0,0,.554,6.681H4.767s-.129-6.681.452-6.732,1.841,6.732,1.841,6.732H8.649a57.98,57.98,0,0,1-.958-6.2,1.83,1.83,0,0,1,1.26-1.337c.554-.126,4.917-.227,5.295.05a3.064,3.064,0,0,1,.73,2.219c-.025,1.034-.63,5.27-.63,5.27h1.361s.63-6.984,1.438-7.01c.807,0,.856,7.01.856,7.01h1.212a77.467,77.467,0,0,1,.025-8.523,18.189,18.189,0,0,1,1.512-4.79,7.9,7.9,0,0,0,1.109.1h.051c.2,0,.378-.025.579-.025a12.32,12.32,0,0,0,2.144-.429c.428-.125.882-.3,1.336-.479a.908.908,0,0,0,.455-.252,1.429,1.429,0,0,0,.276-.4s.152-.3-.253-.631M20.9,10.071a6.319,6.319,0,0,0,1.563.05,1.276,1.276,0,0,1,.3-.024c.227-.051.453-.076.68-.127a10.051,10.051,0,0,0,1.74-.479,20.474,20.474,0,0,0-2.42-.05c-1.059-.176-1.186-.605-1.563.025a5.735,5.735,0,0,0-.3.6m-4.413-3.4c-.076-.177-.152-.379-.227-.58l-1.008.353-1.438.378a.536.536,0,0,1-.2.026.674.674,0,0,1-.227-.026l-.807-.252.631,3.1h-.605c1.841.1,3.127.253,3.253-.706a8.029,8.029,0,0,1,.63-2.294M11.2,3.692A2.054,2.054,0,0,0,11.7.869a2.029,2.029,0,0,0-3.329,2.32,2.049,2.049,0,0,0,2.825.5m3.655,5.926-.049.05h.076Zm7.288-4.186a.478.478,0,0,1,.479.479.485.485,0,0,1-.479.5.506.506,0,0,1-.5-.5.5.5,0,0,1,.5-.479" transform="translate(0 0)" fill="#fff" fill-rule="evenodd"/>
      </g>
    </g>
  </g>
</svg>
