<svg xmlns="http://www.w3.org/2000/svg" width="48" height="48" viewBox="0 0 48 48">
  <g id="Group_70034" data-name="Group 70034" transform="translate(-32 -344)">
    <g id="icon" transform="translate(32 344)">
      <rect id="_avatar_en" data-name="#avatar_en" width="48" height="48" rx="12" fill="#c32939"/>
    </g>
    <g id="Group_70033" data-name="Group 70033">
      <rect id="Rectangle_149352" data-name="Rectangle 149352" width="24" height="24" transform="translate(44 356)" fill="none"/>
      <g id="noun-science-1076145" transform="translate(-64.758 341.585)">
        <path id="Path_43152" data-name="Path 43152" d="M132.7,22.236c-.889-1.524-3.227-1.905-6.25-1.27-.94-2.9-2.439-4.725-4.217-4.725s-3.277,1.8-4.217,4.725c-3-.66-5.36-.254-6.25,1.27a3.084,3.084,0,0,0-.229,2.363,9.332,9.332,0,0,0,2.236,3.608,8.756,8.756,0,0,0-2.236,3.608,3.083,3.083,0,0,0,.229,2.363c.61,1.042,1.931,1.55,3.684,1.55a11.924,11.924,0,0,0,2.566-.3c.94,2.921,2.439,4.751,4.217,4.751s3.277-1.8,4.217-4.725a12.108,12.108,0,0,0,2.566.3c1.753,0,3.049-.508,3.684-1.55a3.1,3.1,0,0,0,.229-2.363,9.332,9.332,0,0,0-2.236-3.608,8.756,8.756,0,0,0,2.236-3.608,3.133,3.133,0,0,0-.229-2.388Zm-12.931-1.651c.711-1.753,1.626-2.795,2.464-2.795s1.753,1.042,2.464,2.795a7.2,7.2,0,0,1,.279.788,23.064,23.064,0,0,0-2.744,1.042,23.07,23.07,0,0,0-2.744-1.042c.1-.279.178-.559.279-.788Zm6.173,7.622q0,1.067-.076,2.058c-.559.381-1.143.737-1.778,1.092-.61.356-1.245.686-1.855.965-.61-.3-1.245-.61-1.855-.965-.635-.356-1.219-.737-1.778-1.092-.051-.66-.076-1.372-.076-2.058q0-1.067.076-2.058c.559-.381,1.143-.737,1.778-1.092.61-.356,1.245-.686,1.855-.965.61.3,1.245.61,1.855.965.635.356,1.219.737,1.778,1.092Q125.941,27.139,125.942,28.206Zm1.5-.915q.572.457,1.067.915-.5.457-1.067.915c0-.3.025-.61.025-.915S127.466,27.6,127.441,27.291Zm-1.8,4.929c-.076.457-.152.915-.254,1.346-.432-.127-.864-.279-1.321-.457.254-.127.534-.279.788-.432a6.288,6.288,0,0,0,.788-.457Zm-5.233.915a13.517,13.517,0,0,1-1.321.457c-.1-.432-.178-.889-.254-1.346.254.152.534.3.788.457s.534.28.788.432Zm-3.379-4.014q-.572-.457-1.067-.915.5-.457,1.067-.915c0,.3-.025.61-.025.915S117,28.816,117.024,29.121Zm1.8-4.929c.076-.457.152-.915.254-1.346.432.127.864.279,1.321.457-.254.127-.534.279-.788.432a6.288,6.288,0,0,0-.788.457Zm6.021-.483c-.254-.152-.534-.279-.788-.432a13.515,13.515,0,0,1,1.321-.457c.1.432.178.889.254,1.346-.254-.152-.534-.3-.788-.457ZM113.087,23c.3-.534,1.143-.813,2.312-.813a8.956,8.956,0,0,1,1.372.1l.838.152a22.961,22.961,0,0,0-.457,2.845,21.41,21.41,0,0,0-2.261,1.829,7.622,7.622,0,0,1-1.855-2.947A1.409,1.409,0,0,1,113.087,23Zm3.684,11.127c-1.88.279-3.277.025-3.684-.711a1.557,1.557,0,0,1-.076-1.194,7.807,7.807,0,0,1,1.855-2.947,23.642,23.642,0,0,0,2.261,1.829,22.246,22.246,0,0,0,.457,2.845,7.643,7.643,0,0,1-.813.178Zm7.926,1.7c-.711,1.753-1.626,2.795-2.464,2.795s-1.753-1.042-2.464-2.795a7.2,7.2,0,0,1-.279-.788A23.063,23.063,0,0,0,122.233,34a23.072,23.072,0,0,0,2.744,1.042C124.875,35.319,124.8,35.6,124.7,35.827Zm6.682-2.413c-.407.711-1.8.965-3.684.711l-.838-.152a22.967,22.967,0,0,0,.457-2.845,21.411,21.411,0,0,0,2.261-1.829,7.622,7.622,0,0,1,1.855,2.947,1.409,1.409,0,0,1-.051,1.169Zm.076-9.222a7.808,7.808,0,0,1-1.855,2.947,23.641,23.641,0,0,0-2.261-1.829,22.246,22.246,0,0,0-.457-2.845l.838-.152c1.88-.279,3.277-.025,3.684.711a1.617,1.617,0,0,1,.051,1.169Z" transform="translate(-1.651 -1.825)" fill="#fff"/>
        <path id="Path_43153" data-name="Path 43153" d="M300.461,228.48a1.981,1.981,0,1,0,1.981,1.981A1.976,1.976,0,0,0,300.461,228.48Zm0,2.67a.689.689,0,1,1,.689-.689A.68.68,0,0,1,300.461,231.15Z" transform="translate(-179.879 -204.08)" fill="#fff"/>
      </g>
    </g>
  </g>
</svg>
