<svg xmlns="http://www.w3.org/2000/svg" xmlns:xlink="http://www.w3.org/1999/xlink" width="28" height="28" viewBox="0 0 28 28">
  <defs>
    <clipPath id="clip-path">
      <rect id="Rectangle_148722" data-name="Rectangle 148722" width="26.277" height="27.426" fill="#fff"/>
    </clipPath>
  </defs>
  <g id="Group_69712" data-name="Group 69712" transform="translate(-174 -773)">
    <rect id="Rectangle_149165" data-name="Rectangle 149165" width="28" height="28" transform="translate(174 773)" fill="none"/>
    <g id="Group_68919" data-name="Group 68919" transform="translate(175 773)">
      <g id="Group_68918" data-name="Group 68918" transform="translate(0 0)" clip-path="url(#clip-path)">
        <path id="Path_42428" data-name="Path 42428" d="M24.532,16.069a1.758,1.758,0,0,0,0,3.516,1.758,1.758,0,0,0,0-3.516M25.622,20a.368.368,0,0,0-.484,0,1.263,1.263,0,0,1-1.7,0,.368.368,0,0,0-.484,0,.336.336,0,0,0,0,.461,2.339,2.339,0,0,0,.678.388L23.9,22.3a.393.393,0,0,0,.388.315A.4.4,0,0,0,24.7,22.3l.267-1.455a2.225,2.225,0,0,0,.654-.388.3.3,0,0,0,0-.461m-3.661,2.741a1.621,1.621,0,0,0-1.407.7l-.7,1.042-6.4-10.838a1.559,1.559,0,0,0-.218-1.333S9.3,5.546,8.165,4.406C5.473,1.691,1.885,6.734.26,11.583a3.7,3.7,0,0,0,.413,3.565l3.976,4.219L3.606,25.816A1.364,1.364,0,0,0,4.6,27.368a1.359,1.359,0,0,0,1.722-.946l2.109-7.25a1.709,1.709,0,0,0-.266-1.43L5.886,14.736a11.193,11.193,0,0,1,2.061-5.02L11.2,13.645c.461.606.824.752,1.213.655l7.152,12.147a1.059,1.059,0,0,0,1.431.364l1.746-1.019a1.64,1.64,0,0,0-.776-3.055M10.493,5.4A2.71,2.71,0,1,0,8.117,2.394,2.72,2.72,0,0,0,10.493,5.4m14.96,12.924a.281.281,0,0,1-.291-.292.316.316,0,0,0,.582,0,.3.3,0,0,1-.292.292m-.849.315a.3.3,0,0,1-.291-.292v-.023a.316.316,0,0,0,.582,0v.023a.3.3,0,0,1-.292.292m0-.655a.3.3,0,0,1-.291-.291v-.025a.315.315,0,0,0,.582,0v.025a.3.3,0,0,1-.292.291" transform="translate(0 0)" fill="#fff" fill-rule="evenodd"/>
      </g>
    </g>
  </g>
</svg>
