<svg id="icon_footer_account_off" data-name="icon/footer/account/off" xmlns="http://www.w3.org/2000/svg" width="24" height="24" viewBox="0 0 24 24">
  <path id="Vector" d="M24,0V24H0V0Z" fill="rgba(255,255,255,0.01)"/>
  <g id="icon_footer_course_off" data-name="icon/footer/course/off">
    <path id="Subtract" d="M15,20H3a3,3,0,0,1-3-3V3A3,3,0,0,1,3,0H14a2,2,0,0,1,2,2V14.99a1.027,1.027,0,0,1-.113.472l-.545,1.091a1.008,1.008,0,0,0,0,.895l.544,1.087A.985.985,0,0,1,16,19,1,1,0,0,1,15,20ZM3,16a1,1,0,1,0,0,2H13.407a3.011,3.011,0,0,1,0-2ZM6,5A1,1,0,0,0,6,7h4a1,1,0,0,0,0-2Z" transform="translate(4 2.471)" fill="#6a1793"/>
  </g>
</svg>
