<svg id="icon_footer_account_off" data-name="icon/footer/account/off" xmlns="http://www.w3.org/2000/svg" width="24" height="24" viewBox="0 0 24 24">
  <path id="Vector" d="M24,0V24H0V0Z" fill="rgba(255,255,255,0.01)"/>
  <g id="noun-people-1049244" transform="translate(-82.739 -87.366)">
    <path id="Path_41795" data-name="Path 41795" d="M458.8,282.8H455a3.62,3.62,0,0,1,.248,2.109l-.67,5.184v.049a2.17,2.17,0,0,1-.422.943c.074,0,.124.025.2.025h5.085a1.272,1.272,0,0,0,1.24-1.017l.62-4.291a2.553,2.553,0,0,0-2.505-3Z" transform="translate(-354.605 -184.642)" fill="#f4f3fd"/>
    <path id="Path_41796" data-name="Path 41796" d="M467.056,140.787a2.266,2.266,0,0,0,2.257-2.257v-1.315a2.257,2.257,0,0,0-4.515,0v1.315A2.266,2.266,0,0,0,467.056,140.787Z" transform="translate(-364.772 -43.349)" fill="#f4f3fd"/>
    <path id="Path_41797" data-name="Path 41797" d="M89.907,290.676l-.695-5.209a3.8,3.8,0,0,1,.248-2.109h-3.8a2.553,2.553,0,0,0-2.505,3l.62,4.291A1.226,1.226,0,0,0,85,291.668h5.11a.369.369,0,0,0,.174-.025,3.409,3.409,0,0,1-.372-.967Z" transform="translate(0 -185.175)" fill="#f4f3fd"/>
    <path id="Path_41798" data-name="Path 41798" d="M135.536,140.787a2.266,2.266,0,0,0,2.257-2.257v-1.315a2.257,2.257,0,0,0-4.515,0v1.315A2.266,2.266,0,0,0,135.536,140.787Z" transform="translate(-47.937 -43.349)" fill="#f4f3fd"/>
    <path id="Path_41799" data-name="Path 41799" d="M247.2,253.68h-4.167a2.784,2.784,0,0,0-2.729,3.3l.695,5.209a1.378,1.378,0,0,0,1.339,1.116h5.581a1.358,1.358,0,0,0,1.339-1.116l.695-5.209A2.8,2.8,0,0,0,247.2,253.68Z" transform="translate(-150.176 -156.812)" fill="#f4f3fd"/>
    <path id="Path_41800" data-name="Path 41800" d="M296.481,96a2.488,2.488,0,0,0,2.481-2.481V92.081a2.481,2.481,0,0,0-4.961,0v1.439A2.488,2.488,0,0,0,296.481,96Z" transform="translate(-201.538 0)" fill="#f4f3fd"/>
  </g>
</svg>
