<svg id="Group_70044" data-name="Group 70044" xmlns="http://www.w3.org/2000/svg" width="48" height="48" viewBox="0 0 48 48">
  <rect id="_avatar_en" data-name="#avatar_en" width="48" height="48" rx="12" fill="#c32939"/>
  <g id="Group_70043" data-name="Group 70043">
    <rect id="Rectangle_149358" data-name="Rectangle 149358" width="24" height="24" transform="translate(12 12)" fill="none"/>
    <g id="noun-mentor-5019273" transform="translate(-94.668 -56)">
      <path id="Path_43176" data-name="Path 43176" d="M262.906,77.595a.858.858,0,0,0,.834.038l1.535-.768h4.088a1.716,1.716,0,0,0,1.716-1.716V71.716A1.716,1.716,0,0,0,269.363,70h-5.149a1.716,1.716,0,0,0-1.716,1.716v5.149a.858.858,0,0,0,.408.73Z" transform="translate(-148.188)" fill="#fff"/>
      <path id="Path_43177" data-name="Path 43177" d="M164.365,248.433A3.433,3.433,0,1,1,160.933,245a3.433,3.433,0,0,1,3.433,3.433" transform="translate(-48.339 -166.419)" fill="#fff"/>
      <path id="Path_43178" data-name="Path 43178" d="M116.592,381.15a5.149,5.149,0,0,1-8,0,6,6,0,0,0-1.9,3.33,1.665,1.665,0,0,0,.352,1.373,1.74,1.74,0,0,0,1.339.635h8.41a1.74,1.74,0,0,0,1.339-.635,1.657,1.657,0,0,0,.352-1.373,6,6,0,0,0-1.9-3.33Z" transform="translate(0 -295.893)" fill="#fff"/>
      <path id="Path_43179" data-name="Path 43179" d="M409.365,248.433A3.433,3.433,0,1,1,405.933,245a3.432,3.432,0,0,1,3.433,3.433" transform="translate(-281.325 -166.419)" fill="#fff"/>
      <path id="Path_43180" data-name="Path 43180" d="M363.482,384.478a6,6,0,0,0-1.9-3.33,5.149,5.149,0,0,1-8,0,6,6,0,0,0-1.9,3.33,1.657,1.657,0,0,0,.352,1.373,1.74,1.74,0,0,0,1.339.635h8.41a1.74,1.74,0,0,0,1.339-.635,1.665,1.665,0,0,0,.352-1.373Z" transform="translate(-232.979 -295.891)" fill="#fff"/>
    </g>
  </g>
</svg>
